# Blender v3.2.2 OBJ File: ''
# www.blender.org
mtllib Gem.mtl
o Gem_Green_Cube.281
v -0.494932 0.236300 1.494822
v 0.494932 0.236300 1.494822
v 0.309806 0.948682 0.935692
v -0.309806 0.948682 0.935692
v 1.494822 0.236300 -0.494932
v 0.494932 0.236300 -1.494822
v 0.309806 0.948682 -0.935692
v 0.935692 0.948682 -0.309806
v 1.494822 0.236300 0.494932
v 0.935692 0.948682 0.309806
v 0.000000 -1.949530 -0.000000
v -0.495728 0.096344 -1.497228
v 0.495728 0.096344 -1.497228
v -0.495728 0.096344 1.497228
v -1.497228 0.096344 0.495728
v 0.495728 0.096344 1.497228
v 1.497228 0.096344 0.495728
v -1.494822 0.236300 -0.494932
v -1.494822 0.236300 0.494932
v -0.935692 0.948682 0.309806
v -0.935692 0.948682 -0.309806
v -0.494932 0.236300 -1.494822
v -0.309806 0.948682 -0.935692
v 1.497228 0.096344 -0.495728
v 0.787728 1.074440 -0.251606
v 0.251606 1.074440 -0.787728
v -0.251606 1.074440 -0.787728
v -0.787728 1.074440 -0.251606
v -0.787728 1.074440 0.251606
v -0.251606 1.074440 0.787728
v 0.251606 1.074440 0.787728
v 0.787728 1.074440 0.251606
v -1.497228 0.096344 -0.495728
vt 0.000000 0.000000
vt 1.000000 0.000000
vt 1.000000 1.000000
vt 0.000000 0.000000
vt 1.000000 0.000000
vt 1.000000 1.000000
vt 0.000000 0.000000
vt 1.000000 0.000000
vt 1.000000 1.000000
vt 0.000000 0.000000
vt 1.000000 0.000000
vt 1.000000 1.000000
vt 1.000000 0.000000
vt 1.000000 1.000000
vt 0.000000 0.000000
vt 1.000000 0.000000
vt 1.000000 1.000000
vt 0.000000 0.000000
vt 1.000000 0.000000
vt 1.000000 1.000000
vt 0.000000 0.000000
vt 1.000000 1.000000
vt 1.000000 0.000000
vt 1.000000 1.000000
vt 1.000000 0.000000
vt 0.000000 0.000000
vt 1.000000 0.000000
vt 1.000000 1.000000
vt 1.000000 0.000000
vt 1.000000 1.000000
vt 1.000000 0.000000
vt 1.000000 1.000000
vt 0.000000 0.000000
vt 1.000000 0.000000
vt 1.000000 1.000000
vt 0.000000 0.000000
vt 1.000000 0.000000
vt 0.000000 0.000000
vt 1.000000 1.000000
vt 0.000000 0.000000
vt 1.000000 1.000000
vt 0.000000 0.000000
vt 0.000000 0.000000
vt 1.000000 0.000000
vt 1.000000 1.000000
vt 0.000000 0.000000
vt 1.000000 0.000000
vt 1.000000 1.000000
vt 0.000000 0.000000
vt 1.000000 1.000000
vt 0.000000 0.000000
vt 1.000000 0.000000
vt 1.000000 1.000000
vt 0.000000 0.000000
vt 0.000000 0.000000
vt 1.000000 0.000000
vt 1.000000 1.000000
vt 0.000000 0.000000
vt 1.000000 0.000000
vt 1.000000 1.000000
vt 1.000000 1.000000
vt 1.000000 0.000000
vt 1.000000 0.000000
vt 0.000000 0.000000
vt 1.000000 1.000000
vt 1.000000 1.000000
vt 1.000000 0.000000
vt 1.000000 0.000000
vt 1.000000 1.000000
vt 0.000000 0.000000
vt 1.000000 0.000000
vt 1.000000 0.000000
vt 1.000000 0.000000
vt 1.000000 0.000000
vt 1.000000 1.000000
vt 1.000000 1.000000
vt 1.000000 1.000000
vt 1.000000 0.000000
vt 1.000000 0.000000
vn 0.0000 0.6174 0.7866
vn 0.0000 0.6814 0.7319
vn 0.5687 0.5942 -0.5687
vn 0.5289 0.6637 -0.5289
vn 0.7866 0.6174 0.0000
vn 0.7319 0.6814 0.0000
vn 0.0000 -0.5906 -0.8070
vn -0.5823 -0.5673 0.5823
vn 0.5823 -0.5673 0.5823
vn -0.7866 0.6174 0.0000
vn -0.7319 0.6814 0.0000
vn 0.0000 0.6174 -0.7866
vn 0.0000 0.6814 -0.7319
vn 0.5687 0.5942 0.5687
vn 0.5289 0.6637 0.5289
vn 0.8070 -0.5906 -0.0000
vn -0.0000 1.0000 0.0000
vn -0.5687 0.5942 -0.5687
vn -0.5289 0.6637 -0.5289
vn 0.0000 -0.5906 0.8070
vn 0.5823 -0.5673 -0.5823
vn -0.8070 -0.5906 -0.0000
vn 0.6476 0.7620 0.0000
vn 0.0000 0.7620 0.6476
vn -0.6476 0.7620 0.0000
vn -0.4619 0.7572 0.4619
vn -0.5289 0.6637 0.5289
vn 0.4619 0.7572 0.4619
vn -0.4619 0.7572 -0.4619
vn 0.4619 0.7572 -0.4619
vn 0.0000 0.7620 -0.6476
vn -0.5823 -0.5673 -0.5823
vn -0.7070 0.0162 0.7070
vn -0.7070 0.0162 -0.7070
vn 0.7070 0.0162 -0.7070
vn 0.7070 0.0162 0.7070
vn -0.9999 0.0172 0.0000
vn 0.0000 0.0172 0.9999
vn 0.9999 0.0172 0.0000
vn 0.0000 0.0172 -0.9999
vn -0.5687 0.5942 0.5687
usemtl Gem_Green
s 1
f 2/1/1 4/2/2 1/3/1
f 5/4/3 7/5/4 8/6/4
f 9/7/5 8/8/6 10/9/6
f 11/10/7 12/11/7 13/12/7
f 11/10/8 14/13/8 15/14/8
f 16/15/9 11/16/9 17/17/9
f 18/18/10 20/19/11 21/20/11
f 22/21/12 7/5/13 6/22/12
f 9/7/14 3/23/15 2/24/14
f 11/10/16 24/25/16 17/17/16
f 26/26/17 28/27/17 30/28/17
f 18/18/18 23/29/19 22/30/18
f 11/10/20 16/31/20 14/32/20
f 24/33/21 11/16/21 13/12/21
f 11/10/22 15/34/22 33/35/22
f 8/36/6 32/37/23 10/9/6
f 30/38/24 3/23/2 31/39/24
f 28/40/25 20/19/11 29/41/25
f 29/42/26 4/2/27 30/28/26
f 31/43/28 10/44/15 32/45/28
f 27/46/29 21/47/19 28/48/29
f 25/49/30 7/5/4 26/50/30
f 23/51/13 26/52/31 7/53/13
f 12/54/32 11/16/32 33/35/32
f 1/55/33 15/34/33 14/32/33
f 22/21/34 33/56/34 18/57/34
f 6/58/35 24/25/35 13/12/35
f 2/1/36 17/59/36 9/60/36
f 18/18/37 15/34/37 19/61/37
f 1/55/38 16/31/38 2/24/38
f 24/33/39 9/62/39 17/17/39
f 12/54/40 6/63/40 13/12/40
f 19/64/41 4/2/27 20/65/27
f 2/1/1 3/23/2 4/66/2
f 5/4/3 6/63/3 7/53/4
f 9/7/5 5/67/5 8/6/6
f 18/18/10 19/68/10 20/65/11
f 22/21/12 23/29/13 7/53/13
f 9/7/14 10/44/15 3/69/15
f 32/70/17 25/71/17 26/50/17
f 26/26/17 27/72/17 28/48/17
f 28/40/17 29/73/17 30/28/17
f 30/38/17 31/74/17 32/45/17
f 32/70/17 26/52/17 30/28/17
f 18/18/18 21/47/19 23/75/19
f 8/36/6 25/71/23 32/45/23
f 30/38/24 4/2/2 3/69/2
f 28/40/25 21/47/11 20/65/11
f 29/42/26 20/19/27 4/66/27
f 31/43/28 3/23/15 10/9/15
f 27/46/29 23/29/19 21/20/19
f 25/49/30 8/8/4 7/53/4
f 23/51/13 27/72/31 26/50/31
f 1/55/33 19/68/33 15/14/33
f 22/21/34 12/11/34 33/35/34
f 6/58/35 5/67/35 24/76/35
f 2/1/36 16/31/36 17/17/36
f 18/18/37 33/56/37 15/14/37
f 1/55/38 14/13/38 16/77/38
f 24/33/39 5/67/39 9/60/39
f 12/54/40 22/78/40 6/22/40
f 19/64/41 1/79/41 4/66/27
