# Blender 3.4.1
# www.blender.org
mtllib MiniBridge.mtl
o Cube
v -0.500000 -0.100000 0.500000
v -0.500000 0.000000 0.500000
v -0.500000 -0.100000 -0.500000
v -0.500000 0.000000 -0.500000
v 0.500000 -0.100000 0.500000
v 0.500000 0.000000 0.500000
v 0.500000 -0.100000 -0.500000
v 0.500000 0.000000 -0.500000
v -0.606066 -0.435355 0.450000
v -0.181802 -0.011091 0.450000
v -0.606066 -0.435355 0.350000
v -0.181802 -0.011091 0.350000
v -0.535355 -0.506066 0.450000
v -0.111091 -0.081802 0.450000
v -0.535355 -0.506066 0.350000
v -0.111091 -0.081802 0.350000
v -0.606066 -0.435355 -0.350000
v -0.181802 -0.011091 -0.350000
v -0.606066 -0.435355 -0.450000
v -0.181802 -0.011091 -0.450000
v -0.535355 -0.506066 -0.350000
v -0.111091 -0.081802 -0.350000
v -0.535355 -0.506066 -0.450000
v -0.111091 -0.081802 -0.450000
v 0.606066 -0.435355 -0.450000
v 0.181802 -0.011091 -0.450000
v 0.606066 -0.435355 -0.350000
v 0.181802 -0.011091 -0.350000
v 0.535355 -0.506066 -0.450000
v 0.111091 -0.081802 -0.450000
v 0.535355 -0.506066 -0.350000
v 0.111091 -0.081802 -0.350000
v 0.606066 -0.435355 0.350000
v 0.181802 -0.011091 0.350000
v 0.606066 -0.435355 0.450000
v 0.181802 -0.011091 0.450000
v 0.535355 -0.506066 0.350000
v 0.111091 -0.081802 0.350000
v 0.535355 -0.506066 0.450000
v 0.111091 -0.081802 0.450000
vn -1.0000 -0.0000 -0.0000
vn -0.0000 -0.0000 -1.0000
vn 1.0000 -0.0000 -0.0000
vn -0.0000 -0.0000 1.0000
vn -0.0000 -1.0000 -0.0000
vn -0.0000 1.0000 -0.0000
vn -0.7071 0.7071 -0.0000
vn 0.7071 -0.7071 -0.0000
vn -0.7071 -0.7071 -0.0000
vn 0.7071 0.7071 -0.0000
vt 0.250000 0.000000
vt 0.250000 1.000000
vt 0.000000 0.750000
vt 0.281250 0.000000
vt 0.281250 1.000000
vt 0.531250 0.750000
vt 0.000000 0.500000
vt 0.250000 0.250000
vt 0.281250 0.250000
vt 0.531250 0.500000
vt 0.250000 0.750000
vt 0.281250 0.750000
vt 0.250000 0.500000
vt 0.281250 0.500000
vt 0.865942 0.210799
vt 0.865942 0.314841
vt 0.727545 0.288831
vt 0.881549 0.210799
vt 0.881549 0.314841
vt 0.907559 0.288831
vt 0.727546 0.262820
vt 0.865942 0.236809
vt 0.881549 0.236809
vt 0.907559 0.262820
vt 0.865942 0.288831
vt 0.881549 0.288831
vt 0.865942 0.262820
vt 0.881549 0.262820
vt 0.865942 0.210799
vt 0.865942 0.314841
vt 0.727545 0.288831
vt 0.881549 0.210799
vt 0.881549 0.314841
vt 0.907559 0.288831
vt 0.727546 0.262820
vt 0.865942 0.236809
vt 0.881549 0.236809
vt 0.907559 0.262820
vt 0.865942 0.288831
vt 0.881549 0.288831
vt 0.865942 0.262820
vt 0.881549 0.262820
vt 0.865942 0.210799
vt 0.865942 0.314841
vt 0.727545 0.288831
vt 0.881549 0.210799
vt 0.881549 0.314841
vt 0.907559 0.288831
vt 0.727546 0.262820
vt 0.865942 0.236809
vt 0.881549 0.236809
vt 0.907559 0.262820
vt 0.865942 0.288831
vt 0.881549 0.288831
vt 0.865942 0.262820
vt 0.881549 0.262820
vt 0.865942 0.210799
vt 0.865942 0.314841
vt 0.727545 0.288831
vt 0.881549 0.210799
vt 0.881549 0.314841
vt 0.907559 0.288831
vt 0.727546 0.262820
vt 0.865942 0.236809
vt 0.881549 0.236809
vt 0.907559 0.262820
vt 0.865942 0.288831
vt 0.881549 0.288831
vt 0.865942 0.262820
vt 0.881549 0.262820
s 0
usemtl MiniBridge
f 2/4/1 3/8/1 1/1/1
f 4/9/2 7/13/2 3/8/2
f 8/14/3 5/11/3 7/13/3
f 6/12/4 1/2/4 5/11/4
f 7/13/5 1/3/5 3/7/5
f 4/10/6 6/12/6 8/14/6
f 9/15/7 12/23/7 11/22/7
f 11/22/2 16/28/2 15/27/2
f 16/28/8 13/25/8 15/27/8
f 14/26/4 9/16/4 13/25/4
f 15/27/9 9/17/9 11/21/9
f 12/24/10 14/26/10 16/28/10
f 17/29/7 20/37/7 19/36/7
f 19/36/2 24/42/2 23/41/2
f 24/42/8 21/39/8 23/41/8
f 22/40/4 17/30/4 21/39/4
f 23/41/9 17/31/9 19/35/9
f 20/38/10 22/40/10 24/42/10
f 25/43/10 28/51/10 27/50/10
f 27/50/4 32/56/4 31/55/4
f 32/56/9 29/53/9 31/55/9
f 30/54/2 25/44/2 29/53/2
f 31/55/8 25/45/8 27/49/8
f 28/52/7 30/54/7 32/56/7
f 33/57/10 36/65/10 35/64/10
f 35/64/4 40/70/4 39/69/4
f 40/70/9 37/67/9 39/69/9
f 38/68/2 33/58/2 37/67/2
f 39/69/8 33/59/8 35/63/8
f 36/66/7 38/68/7 40/70/7
f 2/4/1 4/9/1 3/8/1
f 4/9/2 8/14/2 7/13/2
f 8/14/3 6/12/3 5/11/3
f 6/12/4 2/5/4 1/2/4
f 7/13/5 5/11/5 1/3/5
f 4/10/6 2/6/6 6/12/6
f 9/15/7 10/18/7 12/23/7
f 11/22/2 12/23/2 16/28/2
f 16/28/8 14/26/8 13/25/8
f 14/26/4 10/19/4 9/16/4
f 15/27/9 13/25/9 9/17/9
f 12/24/10 10/20/10 14/26/10
f 17/29/7 18/32/7 20/37/7
f 19/36/2 20/37/2 24/42/2
f 24/42/8 22/40/8 21/39/8
f 22/40/4 18/33/4 17/30/4
f 23/41/9 21/39/9 17/31/9
f 20/38/10 18/34/10 22/40/10
f 25/43/10 26/46/10 28/51/10
f 27/50/4 28/51/4 32/56/4
f 32/56/9 30/54/9 29/53/9
f 30/54/2 26/47/2 25/44/2
f 31/55/8 29/53/8 25/45/8
f 28/52/7 26/48/7 30/54/7
f 33/57/10 34/60/10 36/65/10
f 35/64/4 36/65/4 40/70/4
f 40/70/9 38/68/9 37/67/9
f 38/68/2 34/61/2 33/58/2
f 39/69/8 37/67/8 33/59/8
f 36/66/7 34/62/7 38/68/7
