# Blender v3.4.1 OBJ File: ''
# www.blender.org
mtllib Ground1.mtl
o Cube_Cube.006
v -60.000000 -5.000000 55.000000
v -60.000000 0.000000 55.000000
v -60.000000 -5.000000 -55.000000
v -60.000000 0.000000 -55.000000
v 60.000000 -5.000000 55.000000
v 60.000000 0.000000 55.000000
v 60.000000 -5.000000 -55.000000
v 60.000000 0.000000 -55.000000
v -60.000000 0.000000 -54.999996
v -60.000000 12.000000 -54.999996
v -60.000000 0.000000 -58.999996
v -60.000000 12.000000 -58.999996
v 60.000000 0.000000 -54.999996
v 60.000000 12.000000 -54.999996
v 60.000000 0.000000 -58.999996
v 60.000000 12.000000 -58.999996
v -9.999998 0.000000 58.999996
v -9.999998 12.000000 58.999996
v -9.999998 0.000000 54.999996
v -9.999998 12.000000 54.999996
v 60.000000 0.000000 58.999996
v 60.000000 12.000000 58.999996
v 60.000000 0.000000 54.999996
v 60.000000 12.000000 54.999996
v 60.000000 0.000000 -58.999996
v 60.000000 12.000000 -58.999996
v 64.000000 0.000000 -58.999996
v 64.000000 12.000000 -58.999996
v 60.000008 0.000000 58.999996
v 60.000008 12.000000 58.999996
v 64.000008 0.000000 58.999996
v 64.000008 12.000000 58.999996
v -64.000008 0.000000 -58.999996
v -64.000008 12.000000 -58.999996
v -60.000008 0.000000 -58.999996
v -60.000008 12.000000 -58.999996
v -64.000000 0.000000 58.999996
v -64.000000 12.000000 58.999996
v -60.000000 0.000000 58.999996
v -60.000000 12.000000 58.999996
vt 0.031250 0.033898
vt 0.031250 0.966102
vt 0.031250 0.033898
vt 0.031250 0.966102
vt 0.968750 0.966102
vt 0.968750 0.966102
vt 0.968750 0.033898
vt 0.968750 0.033898
vt 0.031250 0.966102
vt 0.031250 1.000000
vt 0.031250 0.966102
vt 0.031250 1.000000
vt 0.968750 1.000000
vt 0.968750 1.000000
vt 0.968750 0.966102
vt 0.968750 0.966102
vt 0.421875 0.000000
vt 0.421875 0.033898
vt 0.421875 0.000000
vt 0.421875 0.033898
vt 0.968750 0.033898
vt 0.968750 0.033898
vt 0.968750 0.000000
vt 0.968750 0.000000
vt 0.968750 1.000000
vt 1.000000 1.000000
vt 0.968750 1.000000
vt 1.000000 1.000000
vt 1.000000 0.000000
vt 1.000000 0.000000
vt 0.968750 0.000000
vt 0.968750 0.000000
vt 0.000000 1.000000
vt 0.031250 1.000000
vt 0.000000 1.000000
vt 0.031250 1.000000
vt 0.031250 0.000000
vt 0.031250 0.000000
vt 0.000000 0.000000
vt 0.000000 0.000000
vn -1.0000 0.0000 0.0000
vn 0.0000 0.0000 -1.0000
vn 1.0000 0.0000 0.0000
vn 0.0000 0.0000 1.0000
vn 0.0000 -1.0000 0.0000
vn 0.0000 1.0000 0.0000
usemtl Ground
s off
f 2/1/1 3/2/1 1/3/1
f 4/4/2 7/5/2 3/2/2
f 8/6/3 5/7/3 7/5/3
f 6/8/4 1/3/4 5/7/4
f 7/5/5 1/3/5 3/2/5
f 4/4/6 6/8/6 8/6/6
f 10/9/1 11/10/1 9/11/1
f 12/12/2 15/13/2 11/10/2
f 16/14/3 13/15/3 15/13/3
f 14/16/4 9/11/4 13/15/4
f 15/13/5 9/11/5 11/10/5
f 12/12/6 14/16/6 16/14/6
f 18/17/1 19/18/1 17/19/1
f 20/20/2 23/21/2 19/18/2
f 24/22/3 21/23/3 23/21/3
f 22/24/4 17/19/4 21/23/4
f 23/21/5 17/19/5 19/18/5
f 20/20/6 22/24/6 24/22/6
f 26/25/2 27/26/2 25/27/2
f 28/28/3 31/29/3 27/26/3
f 32/30/4 29/31/4 31/29/4
f 30/32/1 25/27/1 29/31/1
f 31/29/5 25/27/5 27/26/5
f 28/28/6 30/32/6 32/30/6
f 34/33/2 35/34/2 33/35/2
f 36/36/3 39/37/3 35/34/3
f 40/38/4 37/39/4 39/37/4
f 38/40/1 33/35/1 37/39/1
f 39/37/5 33/35/5 35/34/5
f 36/36/6 38/40/6 40/38/6
f 2/1/1 4/4/1 3/2/1
f 4/4/2 8/6/2 7/5/2
f 8/6/3 6/8/3 5/7/3
f 6/8/4 2/1/4 1/3/4
f 7/5/5 5/7/5 1/3/5
f 4/4/6 2/1/6 6/8/6
f 10/9/1 12/12/1 11/10/1
f 12/12/2 16/14/2 15/13/2
f 16/14/3 14/16/3 13/15/3
f 14/16/4 10/9/4 9/11/4
f 15/13/5 13/15/5 9/11/5
f 12/12/6 10/9/6 14/16/6
f 18/17/1 20/20/1 19/18/1
f 20/20/2 24/22/2 23/21/2
f 24/22/3 22/24/3 21/23/3
f 22/24/4 18/17/4 17/19/4
f 23/21/5 21/23/5 17/19/5
f 20/20/6 18/17/6 22/24/6
f 26/25/2 28/28/2 27/26/2
f 28/28/3 32/30/3 31/29/3
f 32/30/4 30/32/4 29/31/4
f 30/32/1 26/25/1 25/27/1
f 31/29/5 29/31/5 25/27/5
f 28/28/6 26/25/6 30/32/6
f 34/33/2 36/36/2 35/34/2
f 36/36/3 40/38/3 39/37/3
f 40/38/4 38/40/4 37/39/4
f 38/40/1 34/33/1 33/35/1
f 39/37/5 37/39/5 33/35/5
f 36/36/6 34/33/6 38/40/6
