# Blender 3.4.1
# www.blender.org
mtllib Grass.mtl
o Cube
v -0.399869 -0.500000 0.399869
v -0.399869 -0.399869 0.500000
v -0.500000 -0.399869 0.399869
v -0.399869 -0.470672 0.470672
v -0.457680 -0.457680 0.457680
v -0.470672 -0.399869 0.470672
v -0.470672 -0.470672 0.399869
v -0.399869 0.399869 0.500000
v -0.399869 0.500000 0.399869
v -0.500000 0.399869 0.399869
v -0.399869 0.470672 0.470672
v -0.457680 0.457680 0.457680
v -0.470672 0.470672 0.399869
v -0.470672 0.399869 0.470672
v -0.399869 -0.500000 -0.399869
v -0.500000 -0.399869 -0.399869
v -0.399869 -0.399869 -0.500000
v -0.470672 -0.470672 -0.399869
v -0.457680 -0.457680 -0.457680
v -0.470672 -0.399869 -0.470672
v -0.399869 -0.470672 -0.470672
v -0.399869 0.500000 -0.399869
v -0.399869 0.399869 -0.500000
v -0.500000 0.399869 -0.399869
v -0.399869 0.470672 -0.470672
v -0.457680 0.457680 -0.457680
v -0.470672 0.399869 -0.470672
v -0.470672 0.470672 -0.399869
v 0.399869 -0.500000 0.399869
v 0.500000 -0.399869 0.399869
v 0.399869 -0.399869 0.500000
v 0.470672 -0.470672 0.399869
v 0.457680 -0.457680 0.457680
v 0.470672 -0.399869 0.470672
v 0.399869 -0.470672 0.470672
v 0.399869 0.500000 0.399869
v 0.399869 0.399869 0.500000
v 0.500000 0.399869 0.399869
v 0.399869 0.470672 0.470672
v 0.457680 0.457680 0.457680
v 0.470672 0.399869 0.470672
v 0.470672 0.470672 0.399869
v 0.399869 -0.500000 -0.399869
v 0.399869 -0.399869 -0.500000
v 0.500000 -0.399869 -0.399869
v 0.399869 -0.470672 -0.470672
v 0.457680 -0.457680 -0.457680
v 0.470672 -0.399869 -0.470672
v 0.470672 -0.470672 -0.399869
v 0.399869 0.500000 -0.399869
v 0.500000 0.399869 -0.399869
v 0.399869 0.399869 -0.500000
v 0.470672 0.470672 -0.399869
v 0.457680 0.457680 -0.457680
v 0.470672 0.399869 -0.470672
v 0.399869 0.470672 -0.470672
vn 0.1794 0.1794 0.9673
vn -0.1794 -0.1794 0.9673
vn 0.1794 -0.1794 0.9673
vn 0.9673 0.1794 -0.1794
vn 0.9673 -0.1794 0.1794
vn 0.9673 -0.1794 -0.1794
vn -0.1794 0.9673 -0.1794
vn 0.1794 0.9673 0.1794
vn 0.1794 0.9673 -0.1794
vn -0.9673 0.1794 0.1794
vn -0.9673 -0.1794 -0.1794
vn -0.9673 -0.1794 0.1794
vn -0.1794 0.1794 -0.9673
vn 0.1794 -0.1794 -0.9673
vn -0.1794 -0.1794 -0.9673
vn -0.1794 -0.9673 0.1794
vn -0.5774 -0.5774 0.5774
vn -0.6993 -0.6993 0.1479
vn -0.1479 -0.6993 0.6993
vn -0.6993 -0.1479 0.6993
vn -0.1794 0.1794 0.9673
vn -0.5774 0.5774 0.5774
vn -0.6993 0.1479 0.6993
vn -0.1794 0.9673 0.1794
vn -0.1479 0.6993 0.6993
vn -0.6993 0.6993 0.1479
vn -0.1794 -0.9673 -0.1794
vn -0.5774 -0.5774 -0.5774
vn -0.1479 -0.6993 -0.6993
vn -0.6993 -0.6993 -0.1479
vn -0.6993 -0.1479 -0.6993
vn -0.5774 0.5774 -0.5774
vn -0.6993 0.6993 -0.1479
vn -0.1479 0.6993 -0.6993
vn -0.9673 0.1794 -0.1794
vn -0.6993 0.1479 -0.6993
vn 0.1794 -0.9673 0.1794
vn 0.5774 -0.5774 0.5774
vn 0.1479 -0.6993 0.6993
vn 0.6993 -0.6993 0.1479
vn 0.6993 -0.1479 0.6993
vn 0.5774 0.5774 0.5774
vn 0.6993 0.6993 0.1479
vn 0.1479 0.6993 0.6993
vn 0.9673 0.1794 0.1794
vn 0.6993 0.1479 0.6993
vn 0.1794 -0.9673 -0.1794
vn 0.5774 -0.5774 -0.5774
vn 0.6993 -0.6993 -0.1479
vn 0.1479 -0.6993 -0.6993
vn 0.6993 -0.1479 -0.6993
vn 0.5774 0.5774 -0.5774
vn 0.1479 0.6993 -0.6993
vn 0.6993 0.6993 -0.1479
vn 0.1794 0.1794 -0.9673
vn 0.6993 0.1479 -0.6993
vt 0.150033 0.724967
vt 0.400033 0.974967
vt 0.400033 0.025033
vt 0.375000 0.974967
vt 0.150033 0.750000
vt 0.135580 0.750000
vt 0.385580 1.000000
vt 0.375000 0.010580
vt 0.400033 0.000000
vt 0.400033 1.000000
vt 0.125000 0.724967
vt 0.375000 0.025033
vt 0.599967 0.974967
vt 0.849967 0.724967
vt 0.599967 0.025033
vt 0.849967 0.750000
vt 0.625000 0.974967
vt 0.625000 0.989420
vt 0.875000 0.739420
vt 0.614420 0.000000
vt 0.625000 0.025033
vt 0.875000 0.724967
vt 0.599967 1.000000
vt 0.599967 0.000000
vt 0.150033 0.525033
vt 0.400033 0.224967
vt 0.400033 0.275033
vt 0.375000 0.224967
vt 0.125000 0.525033
vt 0.125000 0.510580
vt 0.385580 0.250000
vt 0.375000 0.260580
vt 0.400033 0.250000
vt 0.150033 0.500000
vt 0.375000 0.275033
vt 0.849967 0.525033
vt 0.599967 0.275033
vt 0.599967 0.224967
vt 0.625000 0.275033
vt 0.849967 0.500000
vt 0.864420 0.500000
vt 0.614420 0.250000
vt 0.625000 0.239420
vt 0.599967 0.250000
vt 0.875000 0.525033
vt 0.625000 0.224967
vt 0.349967 0.724967
vt 0.400033 0.724967
vt 0.400033 0.775033
vt 0.375000 0.724967
vt 0.378527 0.750000
vt 0.400033 0.750000
vt 0.349967 0.750000
vt 0.375000 0.775033
vt 0.650033 0.724967
vt 0.599967 0.775033
vt 0.599967 0.724967
vt 0.625000 0.775033
vt 0.650033 0.750000
vt 0.625000 0.746473
vt 0.599967 0.750000
vt 0.625000 0.724967
vt 0.349967 0.525033
vt 0.400033 0.474967
vt 0.400033 0.525033
vt 0.375000 0.474967
vt 0.349967 0.500000
vt 0.375000 0.503527
vt 0.400033 0.500000
vt 0.375000 0.525033
vt 0.650033 0.525033
vt 0.599967 0.525033
vt 0.599967 0.474967
vt 0.625000 0.525033
vt 0.621473 0.500000
vt 0.599967 0.500000
vt 0.650033 0.500000
vt 0.625000 0.474967
s 1
usemtl Grass
f 37/56/1 2/2/2 31/49/3
f 51/72/4 30/48/5 45/65/6
f 22/36/7 36/55/8 50/71/9
f 10/15/10 16/26/11 3/3/12
f 23/37/13 44/64/14 17/27/15
f 1/1/16 5/6/17 7/11/18
f 2/2/2 5/7/17 4/4/19
f 3/3/12 5/8/17 6/9/20
f 8/13/21 12/18/22 14/23/23
f 9/14/24 12/19/22 11/16/25
f 10/15/10 12/20/22 13/21/26
f 15/25/27 19/30/28 21/34/29
f 16/26/11 19/31/28 18/28/30
f 17/27/15 19/32/28 20/33/31
f 22/36/7 26/41/32 28/45/33
f 23/37/13 26/42/32 25/39/34
f 24/38/35 26/43/32 27/44/36
f 29/47/37 33/51/38 35/53/39
f 30/48/5 33/51/38 32/50/40
f 31/49/3 33/51/38 34/52/41
f 36/55/8 40/60/42 42/62/43
f 37/56/1 40/60/42 39/58/44
f 38/57/45 40/60/42 41/61/46
f 43/63/47 47/68/48 49/70/49
f 44/64/14 47/68/48 46/66/50
f 45/65/6 47/68/48 48/69/51
f 50/71/9 54/75/52 56/77/53
f 51/72/4 54/75/52 53/74/54
f 52/73/55 54/75/52 55/76/56
f 1/1/16 18/29/30 15/25/27
f 7/12/18 16/26/11 18/28/30
f 8/13/21 6/10/20 2/2/2
f 14/24/23 3/3/12 6/9/20
f 22/36/7 13/22/26 9/14/24
f 28/46/33 10/15/10 13/21/26
f 17/27/15 27/44/36 23/37/13
f 20/33/31 24/38/35 27/44/36
f 15/25/27 46/67/50 43/63/47
f 21/35/29 44/64/14 46/66/50
f 50/71/9 25/40/34 22/36/7
f 56/78/53 23/37/13 25/39/34
f 45/65/6 55/76/56 51/72/4
f 48/69/51 52/73/55 55/76/56
f 43/63/47 32/50/40 29/47/37
f 49/70/49 30/48/5 32/50/40
f 36/55/8 53/74/54 50/71/9
f 42/62/43 51/72/4 53/74/54
f 31/49/3 41/61/46 37/56/1
f 34/52/41 38/57/45 41/61/46
f 29/47/37 4/5/19 1/1/16
f 35/54/39 2/2/2 4/4/19
f 9/14/24 39/59/44 36/55/8
f 11/17/25 37/56/1 39/58/44
f 43/63/47 1/1/16 15/25/27
f 37/56/1 8/13/21 2/2/2
f 51/72/4 38/57/45 30/48/5
f 22/36/7 9/14/24 36/55/8
f 10/15/10 24/38/35 16/26/11
f 23/37/13 52/73/55 44/64/14
f 1/1/16 4/5/19 5/6/17
f 2/2/2 6/10/20 5/7/17
f 3/3/12 7/12/18 5/8/17
f 8/13/21 11/17/25 12/18/22
f 9/14/24 13/22/26 12/19/22
f 10/15/10 14/24/23 12/20/22
f 15/25/27 18/29/30 19/30/28
f 16/26/11 20/33/31 19/31/28
f 17/27/15 21/35/29 19/32/28
f 22/36/7 25/40/34 26/41/32
f 23/37/13 27/44/36 26/42/32
f 24/38/35 28/46/33 26/43/32
f 29/47/37 32/50/40 33/51/38
f 30/48/5 34/52/41 33/51/38
f 31/49/3 35/54/39 33/51/38
f 36/55/8 39/59/44 40/60/42
f 37/56/1 41/61/46 40/60/42
f 38/57/45 42/62/43 40/60/42
f 43/63/47 46/67/50 47/68/48
f 44/64/14 48/69/51 47/68/48
f 45/65/6 49/70/49 47/68/48
f 50/71/9 53/74/54 54/75/52
f 51/72/4 55/76/56 54/75/52
f 52/73/55 56/78/53 54/75/52
f 1/1/16 7/11/18 18/29/30
f 7/12/18 3/3/12 16/26/11
f 8/13/21 14/23/23 6/10/20
f 14/24/23 10/15/10 3/3/12
f 22/36/7 28/45/33 13/22/26
f 28/46/33 24/38/35 10/15/10
f 17/27/15 20/33/31 27/44/36
f 20/33/31 16/26/11 24/38/35
f 15/25/27 21/34/29 46/67/50
f 21/35/29 17/27/15 44/64/14
f 50/71/9 56/77/53 25/40/34
f 56/78/53 52/73/55 23/37/13
f 45/65/6 48/69/51 55/76/56
f 48/69/51 44/64/14 52/73/55
f 43/63/47 49/70/49 32/50/40
f 49/70/49 45/65/6 30/48/5
f 36/55/8 42/62/43 53/74/54
f 42/62/43 38/57/45 51/72/4
f 31/49/3 34/52/41 41/61/46
f 34/52/41 30/48/5 38/57/45
f 29/47/37 35/53/39 4/5/19
f 35/54/39 31/49/3 2/2/2
f 9/14/24 11/16/25 39/59/44
f 11/17/25 8/13/21 37/56/1
f 43/63/47 29/47/37 1/1/16
