# Blender v3.2.2 OBJ File: ''
# www.blender.org
mtllib grass.mtl
o Leaves_Cube.604
v -0.500000 0.500000 -0.500000
v 0.500000 -0.500000 -0.500000
v -0.500000 -0.500000 -0.500000
v 0.500000 0.500000 -0.500000
v 0.500000 -0.500000 0.500000
v 0.500000 0.500000 0.500000
v -0.500000 -0.500000 0.500000
v -0.500000 0.500000 0.500000
vt 0.400477 0.399658
vt 0.204210 0.203392
vt 0.400477 0.203392
vt 0.400477 0.399658
vt 0.204210 0.203392
vt 0.400477 0.203392
vt 0.400477 0.399658
vt 0.204210 0.203392
vt 0.400477 0.203392
vt 0.400477 0.399658
vt 0.204210 0.203392
vt 0.400477 0.203392
vt 0.204210 0.399658
vt 0.204210 0.399658
vt 0.400477 0.203392
vt 0.204210 0.399658
vt 0.204210 0.399658
vt 0.204210 0.399658
vt 0.400477 0.399658
vt 0.204210 0.203392
vn 0.0000 0.0000 -1.0000
vn 1.0000 -0.0000 0.0000
vn 0.0000 -0.0000 1.0000
vn -1.0000 -0.0000 0.0000
vn 0.0000 -1.0000 -0.0000
vn 0.0000 1.0000 0.0000
usemtl Blocks_Pixelart
s 1
f 1/1/1 2/2/1 3/3/1
f 4/4/2 5/5/2 2/6/2
f 6/7/3 7/8/3 5/9/3
f 8/10/4 3/11/4 7/12/4
f 5/9/5 3/13/5 2/2/5
f 4/14/6 8/15/6 6/7/6
f 1/1/1 4/14/1 2/2/1
f 4/4/2 6/16/2 5/5/2
f 6/7/3 8/17/3 7/8/3
f 8/10/4 1/18/4 3/11/4
f 5/9/5 7/19/5 3/13/5
f 4/14/6 1/20/6 8/15/6
