# Blender 3.4.1
# www.blender.org
mtllib Kusa.mtl
o Cube
v 0.450000 0.450000 -0.500000
v 0.450000 0.500000 -0.450000
v 0.500000 0.450000 -0.450000
v 0.450000 0.485355 -0.485355
v 0.478868 0.478868 -0.478868
v 0.485355 0.485355 -0.450000
v 0.485355 0.450000 -0.485355
v 0.450000 -0.500000 -0.450000
v 0.450000 -0.450000 -0.500000
v 0.500000 -0.450000 -0.450000
v 0.450000 -0.485355 -0.485355
v 0.478868 -0.478868 -0.478868
v 0.485355 -0.450000 -0.485355
v 0.485355 -0.485355 -0.450000
v 0.500000 0.450000 0.450000
v 0.450000 0.500000 0.450000
v 0.450000 0.450000 0.500000
v 0.485355 0.485355 0.450000
v 0.478868 0.478868 0.478868
v 0.450000 0.485355 0.485355
v 0.485355 0.450000 0.485355
v 0.500000 -0.450000 0.450000
v 0.450000 -0.450000 0.500000
v 0.450000 -0.500000 0.450000
v 0.485355 -0.450000 0.485355
v 0.478868 -0.478868 0.478868
v 0.450000 -0.485355 0.485355
v 0.485355 -0.485355 0.450000
v -0.450000 0.450000 -0.500000
v -0.500000 0.450000 -0.450000
v -0.450000 0.500000 -0.450000
v -0.485355 0.450000 -0.485355
v -0.478868 0.478868 -0.478868
v -0.485355 0.485355 -0.450000
v -0.450000 0.485355 -0.485355
v -0.500000 -0.450000 -0.450000
v -0.450000 -0.450000 -0.500000
v -0.450000 -0.500000 -0.450000
v -0.485355 -0.450000 -0.485355
v -0.478868 -0.478868 -0.478868
v -0.450000 -0.485355 -0.485355
v -0.485355 -0.485355 -0.450000
v -0.500000 0.450000 0.450000
v -0.450000 0.450000 0.500000
v -0.450000 0.500000 0.450000
v -0.485355 0.450000 0.485355
v -0.478868 0.478868 0.478868
v -0.450000 0.485355 0.485355
v -0.485355 0.485355 0.450000
v -0.450000 -0.500000 0.450000
v -0.450000 -0.450000 0.500000
v -0.500000 -0.450000 0.450000
v -0.450000 -0.485355 0.485355
v -0.478868 -0.478868 0.478868
v -0.485355 -0.450000 0.485355
v -0.485355 -0.485355 0.450000
vn 0.1794 -0.9673 -0.1794
vn -0.1794 -0.9673 0.1794
vn -0.1794 -0.9673 -0.1794
vn -0.9673 0.1794 0.1794
vn -0.9673 -0.1794 -0.1794
vn -0.9673 -0.1794 0.1794
vn 0.1794 0.1794 0.9673
vn -0.1794 -0.1794 0.9673
vn 0.1794 -0.1794 0.9673
vn -0.1794 0.9673 -0.1794
vn 0.1794 0.9673 0.1794
vn 0.1794 0.9673 -0.1794
vn 0.9673 0.1794 -0.1794
vn 0.9673 -0.1794 0.1794
vn 0.9673 -0.1794 -0.1794
vn 0.1794 0.1794 -0.9673
vn 0.5774 0.5774 -0.5774
vn 0.6993 0.1479 -0.6993
vn 0.1479 0.6993 -0.6993
vn 0.6993 0.6993 -0.1479
vn 0.5774 -0.5774 -0.5774
vn 0.6993 -0.6993 -0.1479
vn 0.1794 -0.1794 -0.9673
vn 0.1479 -0.6993 -0.6993
vn 0.6993 -0.1479 -0.6993
vn 0.9673 0.1794 0.1794
vn 0.5774 0.5774 0.5774
vn 0.6993 0.1479 0.6993
vn 0.6993 0.6993 0.1479
vn 0.1479 0.6993 0.6993
vn 0.5774 -0.5774 0.5774
vn 0.6993 -0.6993 0.1479
vn 0.6993 -0.1479 0.6993
vn 0.1794 -0.9673 0.1794
vn 0.1479 -0.6993 0.6993
vn -0.1794 0.1794 -0.9673
vn -0.5774 0.5774 -0.5774
vn -0.1479 0.6993 -0.6993
vn -0.9673 0.1794 -0.1794
vn -0.6993 0.1479 -0.6993
vn -0.6993 0.6993 -0.1479
vn -0.5774 -0.5774 -0.5774
vn -0.6993 -0.6993 -0.1479
vn -0.1794 -0.1794 -0.9673
vn -0.6993 -0.1479 -0.6993
vn -0.1479 -0.6993 -0.6993
vn -0.5774 0.5774 0.5774
vn -0.6993 0.6993 0.1479
vn -0.1794 0.1794 0.9673
vn -0.6993 0.1479 0.6993
vn -0.1794 0.9673 0.1794
vn -0.1479 0.6993 0.6993
vn -0.5774 -0.5774 0.5774
vn -0.6993 -0.6993 0.1479
vn -0.1479 -0.6993 0.6993
vn -0.6993 -0.1479 0.6993
vt 0.612500 0.487500
vt 0.637500 0.512500
vt 0.612500 0.512500
vt 0.637500 0.500000
vt 0.625000 0.487500
vt 0.623239 0.500000
vt 0.625000 0.512500
vt 0.612500 0.500000
vt 0.362500 0.512500
vt 0.387500 0.487500
vt 0.387500 0.512500
vt 0.375000 0.487500
vt 0.362500 0.500000
vt 0.375000 0.501761
vt 0.387500 0.500000
vt 0.375000 0.512500
vt 0.612500 0.737500
vt 0.637500 0.737500
vt 0.612500 0.762500
vt 0.625000 0.737500
vt 0.625000 0.748239
vt 0.625000 0.762500
vt 0.637500 0.750000
vt 0.612500 0.750000
vt 0.387500 0.737500
vt 0.387500 0.762500
vt 0.362500 0.737500
vt 0.387500 0.750000
vt 0.376761 0.750000
vt 0.362500 0.750000
vt 0.375000 0.762500
vt 0.375000 0.737500
vt 0.612500 0.262500
vt 0.612500 0.237500
vt 0.862500 0.512500
vt 0.612500 0.250000
vt 0.619717 0.250000
vt 0.625000 0.244717
vt 0.869717 0.500000
vt 0.875000 0.512500
vt 0.625000 0.237500
vt 0.625000 0.262500
vt 0.862500 0.500000
vt 0.387500 0.237500
vt 0.387500 0.262500
vt 0.137500 0.512500
vt 0.387500 0.250000
vt 0.380283 0.250000
vt 0.375000 0.255283
vt 0.125000 0.505283
vt 0.137500 0.500000
vt 0.375000 0.262500
vt 0.375000 0.237500
vt 0.125000 0.512500
vt 0.612500 0.012500
vt 0.612500 0.987500
vt 0.862500 0.737500
vt 0.612500 1.000000
vt 0.612500 0.000000
vt 0.619717 0.000000
vt 0.625000 0.994717
vt 0.875000 0.744717
vt 0.862500 0.750000
vt 0.625000 0.987500
vt 0.625000 0.012500
vt 0.875000 0.737500
vt 0.137500 0.737500
vt 0.387500 0.987500
vt 0.387500 0.012500
vt 0.375000 0.987500
vt 0.137500 0.750000
vt 0.130283 0.750000
vt 0.380283 1.000000
vt 0.375000 0.005283
vt 0.387500 0.000000
vt 0.387500 1.000000
vt 0.125000 0.737500
vt 0.375000 0.012500
s 1
usemtl Material
f 8/9/1 50/67/2 38/46/3
f 43/55/4 36/44/5 52/69/6
f 17/19/7 51/68/8 23/26/9
f 31/35/10 16/18/11 2/2/12
f 3/3/13 22/25/14 10/11/15
f 1/1/16 5/6/17 7/8/18
f 2/2/12 5/6/17 4/4/19
f 3/3/13 5/6/17 6/7/20
f 8/9/1 12/14/21 14/16/22
f 9/10/23 12/14/21 11/12/24
f 10/11/15 12/14/21 13/15/25
f 15/17/26 19/21/27 21/24/28
f 16/18/11 19/21/27 18/20/29
f 17/19/7 19/21/27 20/22/30
f 22/25/14 26/29/31 28/32/32
f 23/26/9 26/29/31 25/28/33
f 24/27/34 26/29/31 27/30/35
f 29/33/36 33/37/37 35/42/38
f 30/34/39 33/38/37 32/36/40
f 31/35/10 33/39/37 34/40/41
f 36/44/5 40/48/42 42/53/43
f 37/45/44 40/49/42 39/47/45
f 38/46/3 40/50/42 41/51/46
f 43/55/4 47/60/47 49/65/48
f 44/56/49 47/61/47 46/58/50
f 45/57/51 47/62/47 48/63/52
f 50/67/2 54/72/53 56/77/54
f 51/68/8 54/73/53 53/70/55
f 52/69/6 54/74/53 55/75/56
f 50/67/2 42/54/43 38/46/3
f 56/78/54 36/44/5 42/53/43
f 38/46/3 11/13/24 8/9/1
f 41/52/46 9/10/23 11/12/24
f 10/11/15 7/8/18 3/3/13
f 13/15/25 1/1/16 7/8/18
f 44/56/49 55/76/56 51/68/8
f 46/59/50 52/69/6 55/75/56
f 23/26/9 21/24/28 17/19/7
f 25/28/33 15/17/26 21/24/28
f 37/45/44 32/36/40 29/33/36
f 39/47/45 30/34/39 32/36/40
f 45/57/51 20/23/30 16/18/11
f 48/64/52 17/19/7 20/22/30
f 16/18/11 6/7/20 2/2/12
f 18/20/29 3/3/13 6/7/20
f 24/27/34 53/71/55 50/67/2
f 27/31/35 51/68/8 53/70/55
f 31/35/10 49/66/48 45/57/51
f 34/41/41 43/55/4 49/65/48
f 2/2/12 35/43/38 31/35/10
f 4/5/19 29/33/36 35/42/38
f 8/9/1 28/32/32 24/27/34
f 14/16/22 22/25/14 28/32/32
f 29/33/36 9/10/23 37/45/44
f 8/9/1 24/27/34 50/67/2
f 43/55/4 30/34/39 36/44/5
f 17/19/7 44/56/49 51/68/8
f 31/35/10 45/57/51 16/18/11
f 3/3/13 15/17/26 22/25/14
f 1/1/16 4/5/19 5/6/17
f 2/2/12 6/7/20 5/6/17
f 3/3/13 7/8/18 5/6/17
f 8/9/1 11/13/24 12/14/21
f 9/10/23 13/15/25 12/14/21
f 10/11/15 14/16/22 12/14/21
f 15/17/26 18/20/29 19/21/27
f 16/18/11 20/23/30 19/21/27
f 17/19/7 21/24/28 19/21/27
f 22/25/14 25/28/33 26/29/31
f 23/26/9 27/31/35 26/29/31
f 24/27/34 28/32/32 26/29/31
f 29/33/36 32/36/40 33/37/37
f 30/34/39 34/41/41 33/38/37
f 31/35/10 35/43/38 33/39/37
f 36/44/5 39/47/45 40/48/42
f 37/45/44 41/52/46 40/49/42
f 38/46/3 42/54/43 40/50/42
f 43/55/4 46/59/50 47/60/47
f 44/56/49 48/64/52 47/61/47
f 45/57/51 49/66/48 47/62/47
f 50/67/2 53/71/55 54/72/53
f 51/68/8 55/76/56 54/73/53
f 52/69/6 56/78/54 54/74/53
f 50/67/2 56/77/54 42/54/43
f 56/78/54 52/69/6 36/44/5
f 38/46/3 41/51/46 11/13/24
f 41/52/46 37/45/44 9/10/23
f 10/11/15 13/15/25 7/8/18
f 13/15/25 9/10/23 1/1/16
f 44/56/49 46/58/50 55/76/56
f 46/59/50 43/55/4 52/69/6
f 23/26/9 25/28/33 21/24/28
f 25/28/33 22/25/14 15/17/26
f 37/45/44 39/47/45 32/36/40
f 39/47/45 36/44/5 30/34/39
f 45/57/51 48/63/52 20/23/30
f 48/64/52 44/56/49 17/19/7
f 16/18/11 18/20/29 6/7/20
f 18/20/29 15/17/26 3/3/13
f 24/27/34 27/30/35 53/71/55
f 27/31/35 23/26/9 51/68/8
f 31/35/10 34/40/41 49/66/48
f 34/41/41 30/34/39 43/55/4
f 2/2/12 4/4/19 35/43/38
f 4/5/19 1/1/16 29/33/36
f 8/9/1 14/16/22 28/32/32
f 14/16/22 10/11/15 22/25/14
f 29/33/36 1/1/16 9/10/23
