# Blender v3.2.2 OBJ File: ''
# www.blender.org
mtllib rotate2.mtl
o Cube
v -5.000000 -0.300000 -27.223557
v 5.000000 0.300000 -27.223557
v -5.000000 0.300000 -27.223557
v 5.000000 -0.300000 -27.223557
v -5.000000 -0.300000 27.060266
v 5.000000 0.300000 27.060266
v -5.000000 0.300000 27.060266
v 5.000000 -0.300000 27.060266
v 5.000000 0.300000 -27.223557
v 2.737793 0.300000 -30.000000
v 4.827800 0.300000 -28.286057
v 4.337415 0.300000 -29.186798
v 3.603502 0.300000 -29.788656
v 2.737793 -0.300000 -30.000000
v 5.000000 -0.300000 -27.223557
v 3.603502 -0.300000 -29.788656
v 4.337415 -0.300000 -29.186798
v 4.827800 -0.300000 -28.286057
v 2.737793 0.300000 30.000000
v 5.000000 0.300000 27.060266
v 3.603502 0.300000 29.776226
v 4.337415 0.300000 29.138971
v 4.827800 0.300000 28.185253
v 5.000000 -0.300000 27.060266
v 2.737793 -0.300000 30.000000
v 4.827800 -0.300000 28.185253
v 4.337415 -0.300000 29.138971
v 3.603502 -0.300000 29.776226
v -2.737793 0.300000 -30.000000
v -5.000000 0.300000 -27.223557
v -3.603502 0.300000 -29.788656
v -4.337415 0.300000 -29.186798
v -4.827800 0.300000 -28.286057
v -5.000000 -0.300000 -27.223557
v -2.737793 -0.300000 -30.000000
v -4.827800 -0.300000 -28.286057
v -4.337415 -0.300000 -29.186798
v -3.603502 -0.300000 -29.788656
v -5.000000 0.300000 27.060266
v -2.737793 0.300000 30.000000
v -4.827800 0.300000 28.185253
v -4.337415 0.300000 29.138971
v -3.603502 0.300000 29.776226
v -2.737793 -0.300000 30.000000
v -5.000000 -0.300000 27.060266
v -3.603502 -0.300000 29.776226
v -4.337415 -0.300000 29.138971
v -4.827800 -0.300000 28.185253
vt 0.129305 0.742439
vt 0.125000 0.737751
vt 0.181555 0.750000
vt 0.629305 0.742439
vt 0.625000 0.737751
vt 0.681555 0.750000
vt 0.375000 0.012249
vt 0.625000 0.012249
vt 0.375000 0.012249
vt 0.375000 0.238431
vt 0.625000 0.238431
vt 0.375000 0.238431
vt 0.625000 0.806555
vt 0.375000 0.943445
vt 0.375000 0.806555
vt 0.870695 0.507141
vt 0.875000 0.511569
vt 0.818445 0.500000
vt 0.625000 0.306555
vt 0.375000 0.443445
vt 0.375000 0.306555
vt 0.375000 0.737751
vt 0.625000 0.737751
vt 0.375000 0.737751
vt 0.370695 0.507141
vt 0.375000 0.511569
vt 0.318445 0.500000
vt 0.625000 0.511569
vt 0.125000 0.511569
vt 0.375000 0.511569
vt 0.625000 0.507141
vt 0.625000 0.511569
vt 0.375000 0.507141
vt 0.625000 0.500000
vt 0.375000 0.500000
vt 0.625000 0.465088
vt 0.375000 0.465088
vt 0.625000 0.443445
vt 0.625000 0.943445
vt 0.375000 0.965088
vt 0.625000 0.965088
vt 0.375000 1.000000
vt 0.625000 0.000000
vt 0.375000 0.007561
vt 0.375000 0.000000
vt 0.625000 0.007561
vt 0.625000 0.784912
vt 0.375000 0.784912
vt 0.625000 0.750000
vt 0.375000 0.750000
vt 0.625000 0.742439
vt 0.375000 0.742439
vt 0.625000 0.284912
vt 0.375000 0.284912
vt 0.625000 0.250000
vt 0.375000 0.250000
vt 0.625000 0.242859
vt 0.375000 0.242859
vt 0.370695 0.742439
vt 0.358435 0.746412
vt 0.318445 0.750000
vt 0.340088 0.749068
vt 0.159912 0.749068
vt 0.141565 0.746412
vt 0.125000 0.737751
vt 0.875000 0.737751
vt 0.875000 0.737751
vt 0.870695 0.742439
vt 0.858435 0.746412
vt 0.818445 0.750000
vt 0.840088 0.749068
vt 0.659912 0.749068
vt 0.641565 0.746412
vt 0.625000 0.012249
vt 0.625000 0.238431
vt 0.629305 0.507141
vt 0.641565 0.503388
vt 0.681555 0.500000
vt 0.659912 0.500881
vt 0.840088 0.500881
vt 0.858435 0.503388
vt 0.875000 0.511569
vt 0.125000 0.511569
vt 0.129305 0.507141
vt 0.141565 0.503388
vt 0.181555 0.500000
vt 0.159912 0.500881
vt 0.340088 0.500881
vt 0.358435 0.503388
vt 0.625000 1.000000
vn 0.0000 -1.0000 0.0000
vn 0.0000 1.0000 0.0000
vn 0.0000 0.0000 1.0000
vn 0.0000 0.0000 -1.0000
vn -1.0000 0.0000 0.0000
vn 1.0000 0.0000 0.0000
vn 0.9871 0.0000 -0.1600
vn 0.8783 0.0000 -0.4782
vn 0.6341 0.0000 -0.7732
vn 0.2372 0.0000 -0.9715
vn -0.2503 0.0000 0.9682
vn -0.6556 0.0000 0.7551
vn -0.8893 0.0000 0.4573
vn -0.9885 0.0000 0.1513
vn 0.2503 0.0000 0.9682
vn 0.6556 0.0000 0.7551
vn 0.8893 0.0000 0.4573
vn 0.9885 0.0000 0.1513
vn -0.2372 0.0000 -0.9715
vn -0.6341 0.0000 -0.7732
vn -0.8783 0.0000 -0.4782
vn -0.9871 0.0000 -0.1600
usemtl Material
s off
f 48/1/1 5/2/1 44/3/1
f 23/4/2 6/5/2 19/6/2
f 45/7/3 7/8/3 5/9/3
f 1/10/3 30/11/3 34/12/3
f 19/13/3 44/14/3 25/15/3
f 33/16/2 3/17/2 29/18/2
f 29/19/4 14/20/4 35/21/4
f 8/22/3 20/23/3 24/24/3
f 7/8/5 1/10/5 5/9/5
f 18/25/1 4/26/1 14/27/1
f 2/28/6 8/22/6 4/26/6
f 4/26/1 5/2/1 1/29/1
f 3/17/2 6/5/2 2/28/2
f 15/30/7 11/31/7 9/32/7
f 18/33/8 12/34/8 11/31/8
f 17/35/9 13/36/9 12/34/9
f 16/37/10 10/38/10 13/36/10
f 40/39/11 46/40/11 44/14/11
f 43/41/12 47/42/12 46/40/12
f 42/43/13 48/44/13 47/45/13
f 41/46/14 45/7/14 48/44/14
f 25/15/15 21/47/15 19/13/15
f 28/48/16 22/49/16 21/47/16
f 27/50/17 23/51/17 22/49/17
f 26/52/18 20/23/18 23/51/18
f 35/21/19 31/53/19 29/19/19
f 38/54/20 32/55/20 31/53/20
f 37/56/21 33/57/21 32/55/21
f 36/58/22 30/11/22 33/57/22
f 15/30/3 2/28/3 4/26/3
f 8/22/3 24/24/3 26/59/3
f 26/59/1 27/60/1 25/61/1
f 27/60/1 28/62/1 25/61/1
f 25/61/1 44/3/1 8/22/1
f 26/59/1 25/61/1 8/22/1
f 44/3/1 46/63/1 47/64/1
f 48/1/3 45/65/3 5/2/3
f 5/2/1 8/22/1 44/3/1
f 44/3/1 47/64/1 48/1/1
f 7/66/3 39/67/3 41/68/3
f 41/68/2 42/69/2 40/70/2
f 42/69/2 43/71/2 40/70/2
f 40/70/2 19/6/2 7/66/2
f 41/68/2 40/70/2 7/66/2
f 19/6/2 21/72/2 22/73/2
f 23/4/3 20/23/3 6/5/3
f 6/5/2 7/66/2 19/6/2
f 19/6/2 22/73/2 23/4/2
f 45/7/3 39/74/3 7/8/3
f 1/10/3 3/75/3 30/11/3
f 19/13/3 40/39/3 44/14/3
f 2/28/3 9/32/3 11/76/3
f 11/76/2 12/77/2 10/78/2
f 12/77/2 13/79/2 10/78/2
f 10/78/2 29/18/2 2/28/2
f 11/76/2 10/78/2 2/28/2
f 29/18/2 31/80/2 32/81/2
f 33/16/3 30/82/3 3/17/3
f 3/17/2 2/28/2 29/18/2
f 29/18/2 32/81/2 33/16/2
f 29/19/4 10/38/4 14/20/4
f 8/22/3 6/5/3 20/23/3
f 7/8/5 3/75/5 1/10/5
f 1/29/3 34/83/3 36/84/3
f 36/84/1 37/85/1 35/86/1
f 37/85/1 38/87/1 35/86/1
f 35/86/1 14/27/1 1/29/1
f 36/84/1 35/86/1 1/29/1
f 14/27/1 16/88/1 17/89/1
f 18/25/3 15/30/3 4/26/3
f 4/26/1 1/29/1 14/27/1
f 14/27/1 17/89/1 18/25/1
f 2/28/6 6/5/6 8/22/6
f 4/26/1 8/22/1 5/2/1
f 3/17/2 7/66/2 6/5/2
f 15/30/7 18/33/7 11/31/7
f 18/33/8 17/35/8 12/34/8
f 17/35/9 16/37/9 13/36/9
f 16/37/10 14/20/10 10/38/10
f 40/39/11 43/41/11 46/40/11
f 43/41/12 42/90/12 47/42/12
f 42/43/13 41/46/13 48/44/13
f 41/46/14 39/74/14 45/7/14
f 25/15/15 28/48/15 21/47/15
f 28/48/16 27/50/16 22/49/16
f 27/50/17 26/52/17 23/51/17
f 26/52/18 24/24/18 20/23/18
f 35/21/19 38/54/19 31/53/19
f 38/54/20 37/56/20 32/55/20
f 37/56/21 36/58/21 33/57/21
f 36/58/22 34/12/22 30/11/22
f 15/30/3 9/32/3 2/28/3
