# Blender v3.2.2 OBJ File: ''
# www.blender.org
mtllib height1.mtl
o Cube.002
v 0.400000 -1.486322 -0.600000
v 0.400000 -1.886322 -0.600000
v 0.400000 -1.486322 0.600000
v 0.400000 -1.886322 0.600000
v -0.400000 -1.486322 -0.600000
v -0.400000 -1.886322 -0.600000
v -0.400000 -1.486322 0.600000
v -0.400000 -1.886322 0.600000
v 0.400000 -0.806322 -0.600000
v 0.400000 -1.206322 -0.600000
v 0.400000 -0.806322 0.600000
v 0.400000 -1.206322 0.600000
v -0.400000 -0.806322 -0.600000
v -0.400000 -1.206322 -0.600000
v -0.400000 -0.806322 0.600000
v -0.400000 -1.206322 0.600000
v 0.400000 -0.126323 -0.600000
v 0.400000 -0.526322 -0.600000
v 0.400000 -0.126323 0.600000
v 0.400000 -0.526322 0.600000
v -0.400000 -0.126323 -0.600000
v -0.400000 -0.526322 -0.600000
v -0.400000 -0.126323 0.600000
v -0.400000 -0.526322 0.600000
v 0.400000 0.553677 -0.600000
v 0.400000 0.153677 -0.600000
v 0.400000 0.553677 0.600000
v 0.400000 0.153677 0.600000
v -0.400000 0.553677 -0.600000
v -0.400000 0.153677 -0.600000
v -0.400000 0.553677 0.600000
v -0.400000 0.153677 0.600000
v 0.400000 1.233677 -0.600000
v 0.400000 0.833677 -0.600000
v 0.400000 1.233677 0.600000
v 0.400000 0.833677 0.600000
v -0.400000 1.233677 -0.600000
v -0.400000 0.833677 -0.600000
v -0.400000 1.233677 0.600000
v -0.400000 0.833677 0.600000
v 0.400000 1.913677 -0.600000
v 0.400000 1.513677 -0.600000
v 0.400000 1.913677 0.600000
v 0.400000 1.513677 0.600000
v -0.400000 1.913677 -0.600000
v -0.400000 1.513677 -0.600000
v -0.400000 1.913677 0.600000
v -0.400000 1.513677 0.600000
v 0.200000 2.000000 0.600000
v 0.200000 -2.000000 0.600000
v 0.200000 2.000000 1.000000
v 0.200000 -2.000000 1.000000
v -0.200000 2.000000 0.600000
v -0.200000 -2.000000 0.600000
v -0.200000 2.000000 1.000000
v -0.200000 -2.000000 1.000000
v 0.200000 2.000000 -1.000000
v 0.200000 -2.000000 -1.000000
v 0.200000 2.000000 -0.600000
v 0.200000 -2.000000 -0.600000
v -0.200000 2.000000 -1.000000
v -0.200000 -2.000000 -1.000000
v -0.200000 2.000000 -0.600000
v -0.200000 -2.000000 -0.600000
vt 0.875000 0.500000
vt 0.625000 0.750000
vt 0.625000 0.500000
vt 0.375000 1.000000
vt 0.375000 0.750000
vt 0.625000 0.000000
vt 0.375000 0.250000
vt 0.375000 0.000000
vt 0.375000 0.500000
vt 0.125000 0.750000
vt 0.125000 0.500000
vt 0.625000 0.250000
vt 0.875000 0.500000
vt 0.625000 0.750000
vt 0.625000 0.500000
vt 0.375000 1.000000
vt 0.375000 0.750000
vt 0.625000 0.000000
vt 0.375000 0.250000
vt 0.375000 0.000000
vt 0.375000 0.500000
vt 0.125000 0.750000
vt 0.125000 0.500000
vt 0.625000 0.250000
vt 0.875000 0.500000
vt 0.625000 0.750000
vt 0.625000 0.500000
vt 0.375000 1.000000
vt 0.375000 0.750000
vt 0.625000 0.000000
vt 0.375000 0.250000
vt 0.375000 0.000000
vt 0.375000 0.500000
vt 0.125000 0.750000
vt 0.125000 0.500000
vt 0.625000 0.250000
vt 0.875000 0.500000
vt 0.625000 0.750000
vt 0.625000 0.500000
vt 0.375000 1.000000
vt 0.375000 0.750000
vt 0.625000 0.000000
vt 0.375000 0.250000
vt 0.375000 0.000000
vt 0.375000 0.500000
vt 0.125000 0.750000
vt 0.125000 0.500000
vt 0.625000 0.250000
vt 0.875000 0.500000
vt 0.625000 0.750000
vt 0.625000 0.500000
vt 0.375000 1.000000
vt 0.375000 0.750000
vt 0.625000 0.000000
vt 0.375000 0.250000
vt 0.375000 0.000000
vt 0.375000 0.500000
vt 0.125000 0.750000
vt 0.125000 0.500000
vt 0.625000 0.250000
vt 0.875000 0.500000
vt 0.625000 0.750000
vt 0.625000 0.500000
vt 0.375000 1.000000
vt 0.375000 0.750000
vt 0.625000 0.000000
vt 0.375000 0.250000
vt 0.375000 0.000000
vt 0.375000 0.500000
vt 0.125000 0.750000
vt 0.125000 0.500000
vt 0.625000 0.250000
vt 0.875000 0.500000
vt 0.625000 0.750000
vt 0.625000 0.500000
vt 0.375000 1.000000
vt 0.375000 0.750000
vt 0.625000 0.000000
vt 0.375000 0.250000
vt 0.375000 0.000000
vt 0.375000 0.500000
vt 0.125000 0.750000
vt 0.125000 0.500000
vt 0.625000 0.250000
vt 0.875000 0.750000
vt 0.625000 1.000000
vt 0.875000 0.750000
vt 0.625000 1.000000
vt 0.875000 0.750000
vt 0.625000 1.000000
vt 0.875000 0.750000
vt 0.625000 1.000000
vt 0.875000 0.750000
vt 0.625000 1.000000
vt 0.875000 0.750000
vt 0.625000 1.000000
vt 0.875000 0.750000
vt 0.625000 1.000000
vt 0.875000 0.500000
vt 0.625000 0.750000
vt 0.625000 0.500000
vt 0.375000 1.000000
vt 0.375000 0.750000
vt 0.625000 0.000000
vt 0.375000 0.250000
vt 0.375000 0.000000
vt 0.375000 0.500000
vt 0.125000 0.750000
vt 0.125000 0.500000
vt 0.625000 0.250000
vt 0.875000 0.750000
vt 0.625000 1.000000
vn 0.0000 1.0000 0.0000
vn 0.0000 0.0000 1.0000
vn -1.0000 0.0000 0.0000
vn 0.0000 -1.0000 0.0000
vn 1.0000 0.0000 0.0000
vn 0.0000 0.0000 -1.0000
usemtl Material
s off
f 5/1/1 3/2/1 1/3/1
f 3/2/2 8/4/2 4/5/2
f 7/6/3 6/7/3 8/8/3
f 2/9/4 8/10/4 6/11/4
f 1/3/5 4/5/5 2/9/5
f 5/12/6 2/9/6 6/7/6
f 13/13/1 11/14/1 9/15/1
f 11/14/2 16/16/2 12/17/2
f 15/18/3 14/19/3 16/20/3
f 10/21/4 16/22/4 14/23/4
f 9/15/5 12/17/5 10/21/5
f 13/24/6 10/21/6 14/19/6
f 21/25/1 19/26/1 17/27/1
f 19/26/2 24/28/2 20/29/2
f 23/30/3 22/31/3 24/32/3
f 18/33/4 24/34/4 22/35/4
f 17/27/5 20/29/5 18/33/5
f 21/36/6 18/33/6 22/31/6
f 29/37/1 27/38/1 25/39/1
f 27/38/2 32/40/2 28/41/2
f 31/42/3 30/43/3 32/44/3
f 26/45/4 32/46/4 30/47/4
f 25/39/5 28/41/5 26/45/5
f 29/48/6 26/45/6 30/43/6
f 37/49/1 35/50/1 33/51/1
f 35/50/2 40/52/2 36/53/2
f 39/54/3 38/55/3 40/56/3
f 34/57/4 40/58/4 38/59/4
f 33/51/5 36/53/5 34/57/5
f 37/60/6 34/57/6 38/55/6
f 45/61/1 43/62/1 41/63/1
f 43/62/2 48/64/2 44/65/2
f 47/66/3 46/67/3 48/68/3
f 42/69/4 48/70/4 46/71/4
f 41/63/5 44/65/5 42/69/5
f 45/72/6 42/69/6 46/67/6
f 53/73/1 51/74/1 49/75/1
f 51/74/2 56/76/2 52/77/2
f 55/78/3 54/79/3 56/80/3
f 50/81/4 56/82/4 54/83/4
f 49/75/5 52/77/5 50/81/5
f 53/84/6 50/81/6 54/79/6
f 5/1/1 7/85/1 3/2/1
f 3/2/2 7/86/2 8/4/2
f 7/6/3 5/12/3 6/7/3
f 2/9/4 4/5/4 8/10/4
f 1/3/5 3/2/5 4/5/5
f 5/12/6 1/3/6 2/9/6
f 13/13/1 15/87/1 11/14/1
f 11/14/2 15/88/2 16/16/2
f 15/18/3 13/24/3 14/19/3
f 10/21/4 12/17/4 16/22/4
f 9/15/5 11/14/5 12/17/5
f 13/24/6 9/15/6 10/21/6
f 21/25/1 23/89/1 19/26/1
f 19/26/2 23/90/2 24/28/2
f 23/30/3 21/36/3 22/31/3
f 18/33/4 20/29/4 24/34/4
f 17/27/5 19/26/5 20/29/5
f 21/36/6 17/27/6 18/33/6
f 29/37/1 31/91/1 27/38/1
f 27/38/2 31/92/2 32/40/2
f 31/42/3 29/48/3 30/43/3
f 26/45/4 28/41/4 32/46/4
f 25/39/5 27/38/5 28/41/5
f 29/48/6 25/39/6 26/45/6
f 37/49/1 39/93/1 35/50/1
f 35/50/2 39/94/2 40/52/2
f 39/54/3 37/60/3 38/55/3
f 34/57/4 36/53/4 40/58/4
f 33/51/5 35/50/5 36/53/5
f 37/60/6 33/51/6 34/57/6
f 45/61/1 47/95/1 43/62/1
f 43/62/2 47/96/2 48/64/2
f 47/66/3 45/72/3 46/67/3
f 42/69/4 44/65/4 48/70/4
f 41/63/5 43/62/5 44/65/5
f 45/72/6 41/63/6 42/69/6
f 53/73/1 55/97/1 51/74/1
f 51/74/2 55/98/2 56/76/2
f 55/78/3 53/84/3 54/79/3
f 50/81/4 52/77/4 56/82/4
f 49/75/5 51/74/5 52/77/5
f 53/84/6 49/75/6 50/81/6
usemtl Material.001
f 61/99/1 59/100/1 57/101/1
f 59/100/2 64/102/2 60/103/2
f 63/104/3 62/105/3 64/106/3
f 58/107/4 64/108/4 62/109/4
f 57/101/5 60/103/5 58/107/5
f 61/110/6 58/107/6 62/105/6
f 61/99/1 63/111/1 59/100/1
f 59/100/2 63/112/2 64/102/2
f 63/104/3 61/110/3 62/105/3
f 58/107/4 60/103/4 64/108/4
f 57/101/5 59/100/5 60/103/5
f 61/110/6 57/101/6 58/107/6
