# Blender v3.2.2 OBJ File: ''
# www.blender.org
mtllib inFront.mtl
o 立方体
v -0.500000 -7.250477 1.000000
v -0.500000 -7.050477 1.000000
v -0.500000 -7.250477 -1.000000
v -0.500000 -7.050477 -1.000000
v 0.500000 -7.250477 1.000000
v 0.500000 -7.050477 1.000000
v 0.500000 -7.250477 -1.000000
v 0.500000 -7.050477 -1.000000
v -0.500000 -6.650477 1.000000
v -0.500000 -6.450477 1.000000
v -0.500000 -6.650477 -1.000000
v -0.500000 -6.450477 -1.000000
v 0.500000 -6.650477 1.000000
v 0.500000 -6.450477 1.000000
v 0.500000 -6.650477 -1.000000
v 0.500000 -6.450477 -1.000000
v -0.500000 -6.050477 1.000000
v -0.500000 -5.850477 1.000000
v -0.500000 -6.050477 -1.000000
v -0.500000 -5.850477 -1.000000
v 0.500000 -6.050477 1.000000
v 0.500000 -5.850477 1.000000
v 0.500000 -6.050477 -1.000000
v 0.500000 -5.850477 -1.000000
v -0.500000 -5.450477 1.000000
v -0.500000 -5.250477 1.000000
v -0.500000 -5.450477 -1.000000
v -0.500000 -5.250477 -1.000000
v 0.500000 -5.450477 1.000000
v 0.500000 -5.250477 1.000000
v 0.500000 -5.450477 -1.000000
v 0.500000 -5.250477 -1.000000
v -0.500000 -4.850477 1.000000
v -0.500000 -4.650477 1.000000
v -0.500000 -4.850477 -1.000000
v -0.500000 -4.650477 -1.000000
v 0.500000 -4.850477 1.000000
v 0.500000 -4.650477 1.000000
v 0.500000 -4.850477 -1.000000
v 0.500000 -4.650477 -1.000000
v -0.500000 -4.250478 1.000000
v -0.500000 -4.050478 1.000000
v -0.500000 -4.250478 -1.000000
v -0.500000 -4.050478 -1.000000
v 0.500000 -4.250478 1.000000
v 0.500000 -4.050478 1.000000
v 0.500000 -4.250478 -1.000000
v 0.500000 -4.050478 -1.000000
v -0.500000 -3.650478 1.000000
v -0.500000 -3.450478 1.000000
v -0.500000 -3.650478 -1.000000
v -0.500000 -3.450478 -1.000000
v 0.500000 -3.650478 1.000000
v 0.500000 -3.450478 1.000000
v 0.500000 -3.650478 -1.000000
v 0.500000 -3.450478 -1.000000
v -0.500000 -3.050478 1.000000
v -0.500000 -2.850478 1.000000
v -0.500000 -3.050478 -1.000000
v -0.500000 -2.850478 -1.000000
v 0.500000 -3.050478 1.000000
v 0.500000 -2.850478 1.000000
v 0.500000 -3.050478 -1.000000
v 0.500000 -2.850478 -1.000000
v -0.500000 -2.450478 1.000000
v -0.500000 -2.250478 1.000000
v -0.500000 -2.450478 -1.000000
v -0.500000 -2.250478 -1.000000
v 0.500000 -2.450478 1.000000
v 0.500000 -2.250478 1.000000
v 0.500000 -2.450478 -1.000000
v 0.500000 -2.250478 -1.000000
v -0.500000 -1.850478 1.000000
v -0.500000 -1.650477 1.000000
v -0.500000 -1.850478 -1.000000
v -0.500000 -1.650477 -1.000000
v 0.500000 -1.850478 1.000000
v 0.500000 -1.650477 1.000000
v 0.500000 -1.850478 -1.000000
v 0.500000 -1.650477 -1.000000
v -0.500000 -1.250478 1.000000
v -0.500000 -1.050478 1.000000
v -0.500000 -1.250478 -1.000000
v -0.500000 -1.050478 -1.000000
v 0.500000 -1.250478 1.000000
v 0.500000 -1.050478 1.000000
v 0.500000 -1.250478 -1.000000
v 0.500000 -1.050478 -1.000000
v -0.500000 -0.650477 1.000000
v -0.500000 -0.450478 1.000000
v -0.500000 -0.650477 -1.000000
v -0.500000 -0.450478 -1.000000
v 0.500000 -0.650477 1.000000
v 0.500000 -0.450478 1.000000
v 0.500000 -0.650477 -1.000000
v 0.500000 -0.450478 -1.000000
v -0.500000 -0.050478 1.000000
v -0.500000 0.149522 1.000000
v -0.500000 -0.050478 -1.000000
v -0.500000 0.149522 -1.000000
v 0.500000 -0.050478 1.000000
v 0.500000 0.149522 1.000000
v 0.500000 -0.050478 -1.000000
v 0.500000 0.149522 -1.000000
v -0.500000 0.549522 1.000000
v -0.500000 0.749522 1.000000
v -0.500000 0.549522 -1.000000
v -0.500000 0.749522 -1.000000
v 0.500000 0.549522 1.000000
v 0.500000 0.749522 1.000000
v 0.500000 0.549522 -1.000000
v 0.500000 0.749522 -1.000000
v -0.500000 1.149522 1.000000
v -0.500000 1.349522 1.000000
v -0.500000 1.149522 -1.000000
v -0.500000 1.349522 -1.000000
v 0.500000 1.149522 1.000000
v 0.500000 1.349522 1.000000
v 0.500000 1.149522 -1.000000
v 0.500000 1.349522 -1.000000
v -0.500000 1.749523 1.000000
v -0.500000 1.949522 1.000000
v -0.500000 1.749523 -1.000000
v -0.500000 1.949522 -1.000000
v 0.500000 1.749523 1.000000
v 0.500000 1.949522 1.000000
v 0.500000 1.749523 -1.000000
v 0.500000 1.949522 -1.000000
v -0.500000 2.349522 1.000000
v -0.500000 2.549523 1.000000
v -0.500000 2.349522 -1.000000
v -0.500000 2.549523 -1.000000
v 0.500000 2.349522 1.000000
v 0.500000 2.549523 1.000000
v 0.500000 2.349522 -1.000000
v 0.500000 2.549523 -1.000000
v -0.500000 2.949522 1.000000
v -0.500000 3.149522 1.000000
v -0.500000 2.949522 -1.000000
v -0.500000 3.149522 -1.000000
v 0.500000 2.949522 1.000000
v 0.500000 3.149522 1.000000
v 0.500000 2.949522 -1.000000
v 0.500000 3.149522 -1.000000
v -0.500000 3.549523 1.000000
v -0.500000 3.749523 1.000000
v -0.500000 3.549523 -1.000000
v -0.500000 3.749523 -1.000000
v 0.500000 3.549523 1.000000
v 0.500000 3.749523 1.000000
v 0.500000 3.549523 -1.000000
v 0.500000 3.749523 -1.000000
v -0.500000 4.149522 1.000000
v -0.500000 4.349522 1.000000
v -0.500000 4.149522 -1.000000
v -0.500000 4.349522 -1.000000
v 0.500000 4.149522 1.000000
v 0.500000 4.349522 1.000000
v 0.500000 4.149522 -1.000000
v 0.500000 4.349522 -1.000000
v -0.500000 4.749523 1.000000
v -0.500000 4.949522 1.000000
v -0.500000 4.749523 -1.000000
v -0.500000 4.949522 -1.000000
v 0.500000 4.749523 1.000000
v 0.500000 4.949522 1.000000
v 0.500000 4.749523 -1.000000
v 0.500000 4.949522 -1.000000
v -0.500000 5.349522 1.000000
v -0.500000 5.549523 1.000000
v -0.500000 5.349522 -1.000000
v -0.500000 5.549523 -1.000000
v 0.500000 5.349522 1.000000
v 0.500000 5.549523 1.000000
v 0.500000 5.349522 -1.000000
v 0.500000 5.549523 -1.000000
v -0.500000 5.949522 1.000000
v -0.500000 6.149521 1.000000
v -0.500000 5.949522 -1.000000
v -0.500000 6.149521 -1.000000
v 0.500000 5.949522 1.000000
v 0.500000 6.149521 1.000000
v 0.500000 5.949522 -1.000000
v 0.500000 6.149521 -1.000000
v -0.500000 6.549522 1.000000
v -0.500000 6.749522 1.000000
v -0.500000 6.549522 -1.000000
v -0.500000 6.749522 -1.000000
v 0.500000 6.549522 1.000000
v 0.500000 6.749522 1.000000
v 0.500000 6.549522 -1.000000
v 0.500000 6.749522 -1.000000
v -0.500000 7.149521 1.000000
v -0.500000 7.349522 1.000000
v -0.500000 7.149521 -1.000000
v -0.500000 7.349522 -1.000000
v 0.500000 7.149521 1.000000
v 0.500000 7.349522 1.000000
v 0.500000 7.149521 -1.000000
v 0.500000 7.349522 -1.000000
v 0.500000 7.500000 0.800000
v 0.500000 -7.500000 0.800000
v 0.500000 7.500000 1.200000
v 0.500000 -7.500000 1.200000
v -0.500000 7.500000 0.800000
v -0.500000 -7.500000 0.800000
v -0.500000 7.500000 1.200000
v -0.500000 -7.500000 1.200000
v 0.500000 7.500000 -1.200000
v 0.500000 -7.500000 -1.200000
v 0.500000 7.500000 -0.800000
v 0.500000 -7.500000 -0.800000
v -0.500000 7.500000 -1.200000
v -0.500000 -7.500000 -1.200000
v -0.500000 7.500000 -0.800000
v -0.500000 -7.500000 -0.800000
vt 0.625000 0.000000
vt 0.375000 0.250000
vt 0.375000 0.000000
vt 0.625000 0.250000
vt 0.375000 0.500000
vt 0.625000 0.500000
vt 0.375000 0.750000
vt 0.625000 0.750000
vt 0.375000 1.000000
vt 0.125000 0.750000
vt 0.125000 0.500000
vt 0.875000 0.500000
vt 0.625000 0.000000
vt 0.375000 0.250000
vt 0.375000 0.000000
vt 0.625000 0.250000
vt 0.375000 0.500000
vt 0.625000 0.500000
vt 0.375000 0.750000
vt 0.625000 0.750000
vt 0.375000 1.000000
vt 0.125000 0.750000
vt 0.125000 0.500000
vt 0.875000 0.500000
vt 0.625000 0.000000
vt 0.375000 0.250000
vt 0.375000 0.000000
vt 0.625000 0.250000
vt 0.375000 0.500000
vt 0.625000 0.500000
vt 0.375000 0.750000
vt 0.625000 0.750000
vt 0.375000 1.000000
vt 0.125000 0.750000
vt 0.125000 0.500000
vt 0.875000 0.500000
vt 0.625000 0.000000
vt 0.375000 0.250000
vt 0.375000 0.000000
vt 0.625000 0.250000
vt 0.375000 0.500000
vt 0.625000 0.500000
vt 0.375000 0.750000
vt 0.625000 0.750000
vt 0.375000 1.000000
vt 0.125000 0.750000
vt 0.125000 0.500000
vt 0.875000 0.500000
vt 0.625000 0.000000
vt 0.375000 0.250000
vt 0.375000 0.000000
vt 0.625000 0.250000
vt 0.375000 0.500000
vt 0.625000 0.500000
vt 0.375000 0.750000
vt 0.625000 0.750000
vt 0.375000 1.000000
vt 0.125000 0.750000
vt 0.125000 0.500000
vt 0.875000 0.500000
vt 0.625000 0.000000
vt 0.375000 0.250000
vt 0.375000 0.000000
vt 0.625000 0.250000
vt 0.375000 0.500000
vt 0.625000 0.500000
vt 0.375000 0.750000
vt 0.625000 0.750000
vt 0.375000 1.000000
vt 0.125000 0.750000
vt 0.125000 0.500000
vt 0.875000 0.500000
vt 0.625000 0.000000
vt 0.375000 0.250000
vt 0.375000 0.000000
vt 0.625000 0.250000
vt 0.375000 0.500000
vt 0.625000 0.500000
vt 0.375000 0.750000
vt 0.625000 0.750000
vt 0.375000 1.000000
vt 0.125000 0.750000
vt 0.125000 0.500000
vt 0.875000 0.500000
vt 0.625000 0.000000
vt 0.375000 0.250000
vt 0.375000 0.000000
vt 0.625000 0.250000
vt 0.375000 0.500000
vt 0.625000 0.500000
vt 0.375000 0.750000
vt 0.625000 0.750000
vt 0.375000 1.000000
vt 0.125000 0.750000
vt 0.125000 0.500000
vt 0.875000 0.500000
vt 0.625000 0.000000
vt 0.375000 0.250000
vt 0.375000 0.000000
vt 0.625000 0.250000
vt 0.375000 0.500000
vt 0.625000 0.500000
vt 0.375000 0.750000
vt 0.625000 0.750000
vt 0.375000 1.000000
vt 0.125000 0.750000
vt 0.125000 0.500000
vt 0.875000 0.500000
vt 0.625000 0.000000
vt 0.375000 0.250000
vt 0.375000 0.000000
vt 0.625000 0.250000
vt 0.375000 0.500000
vt 0.625000 0.500000
vt 0.375000 0.750000
vt 0.625000 0.750000
vt 0.375000 1.000000
vt 0.125000 0.750000
vt 0.125000 0.500000
vt 0.875000 0.500000
vt 0.625000 0.000000
vt 0.375000 0.250000
vt 0.375000 0.000000
vt 0.625000 0.250000
vt 0.375000 0.500000
vt 0.625000 0.500000
vt 0.375000 0.750000
vt 0.625000 0.750000
vt 0.375000 1.000000
vt 0.125000 0.750000
vt 0.125000 0.500000
vt 0.875000 0.500000
vt 0.625000 0.000000
vt 0.375000 0.250000
vt 0.375000 0.000000
vt 0.625000 0.250000
vt 0.375000 0.500000
vt 0.625000 0.500000
vt 0.375000 0.750000
vt 0.625000 0.750000
vt 0.375000 1.000000
vt 0.125000 0.750000
vt 0.125000 0.500000
vt 0.875000 0.500000
vt 0.625000 0.000000
vt 0.375000 0.250000
vt 0.375000 0.000000
vt 0.625000 0.250000
vt 0.375000 0.500000
vt 0.625000 0.500000
vt 0.375000 0.750000
vt 0.625000 0.750000
vt 0.375000 1.000000
vt 0.125000 0.750000
vt 0.125000 0.500000
vt 0.875000 0.500000
vt 0.625000 0.000000
vt 0.375000 0.250000
vt 0.375000 0.000000
vt 0.625000 0.250000
vt 0.375000 0.500000
vt 0.625000 0.500000
vt 0.375000 0.750000
vt 0.625000 0.750000
vt 0.375000 1.000000
vt 0.125000 0.750000
vt 0.125000 0.500000
vt 0.875000 0.500000
vt 0.625000 0.000000
vt 0.375000 0.250000
vt 0.375000 0.000000
vt 0.625000 0.250000
vt 0.375000 0.500000
vt 0.625000 0.500000
vt 0.375000 0.750000
vt 0.625000 0.750000
vt 0.375000 1.000000
vt 0.125000 0.750000
vt 0.125000 0.500000
vt 0.875000 0.500000
vt 0.625000 0.000000
vt 0.375000 0.250000
vt 0.375000 0.000000
vt 0.625000 0.250000
vt 0.375000 0.500000
vt 0.625000 0.500000
vt 0.375000 0.750000
vt 0.625000 0.750000
vt 0.375000 1.000000
vt 0.125000 0.750000
vt 0.125000 0.500000
vt 0.875000 0.500000
vt 0.625000 0.000000
vt 0.375000 0.250000
vt 0.375000 0.000000
vt 0.625000 0.250000
vt 0.375000 0.500000
vt 0.625000 0.500000
vt 0.375000 0.750000
vt 0.625000 0.750000
vt 0.375000 1.000000
vt 0.125000 0.750000
vt 0.125000 0.500000
vt 0.875000 0.500000
vt 0.625000 0.000000
vt 0.375000 0.250000
vt 0.375000 0.000000
vt 0.625000 0.250000
vt 0.375000 0.500000
vt 0.625000 0.500000
vt 0.375000 0.750000
vt 0.625000 0.750000
vt 0.375000 1.000000
vt 0.125000 0.750000
vt 0.125000 0.500000
vt 0.875000 0.500000
vt 0.625000 0.000000
vt 0.375000 0.250000
vt 0.375000 0.000000
vt 0.625000 0.250000
vt 0.375000 0.500000
vt 0.625000 0.500000
vt 0.375000 0.750000
vt 0.625000 0.750000
vt 0.375000 1.000000
vt 0.125000 0.750000
vt 0.125000 0.500000
vt 0.875000 0.500000
vt 0.625000 0.000000
vt 0.375000 0.250000
vt 0.375000 0.000000
vt 0.625000 0.250000
vt 0.375000 0.500000
vt 0.625000 0.500000
vt 0.375000 0.750000
vt 0.625000 0.750000
vt 0.375000 1.000000
vt 0.125000 0.750000
vt 0.125000 0.500000
vt 0.875000 0.500000
vt 0.625000 0.000000
vt 0.375000 0.250000
vt 0.375000 0.000000
vt 0.625000 0.250000
vt 0.375000 0.500000
vt 0.625000 0.500000
vt 0.375000 0.750000
vt 0.625000 0.750000
vt 0.375000 1.000000
vt 0.125000 0.750000
vt 0.125000 0.500000
vt 0.875000 0.500000
vt 0.625000 0.000000
vt 0.375000 0.250000
vt 0.375000 0.000000
vt 0.625000 0.250000
vt 0.375000 0.500000
vt 0.625000 0.500000
vt 0.375000 0.750000
vt 0.625000 0.750000
vt 0.375000 1.000000
vt 0.125000 0.750000
vt 0.125000 0.500000
vt 0.875000 0.500000
vt 0.625000 0.000000
vt 0.375000 0.250000
vt 0.375000 0.000000
vt 0.625000 0.250000
vt 0.375000 0.500000
vt 0.625000 0.500000
vt 0.375000 0.750000
vt 0.625000 0.750000
vt 0.375000 1.000000
vt 0.125000 0.750000
vt 0.125000 0.500000
vt 0.875000 0.500000
vt 0.625000 0.000000
vt 0.375000 0.250000
vt 0.375000 0.000000
vt 0.625000 0.250000
vt 0.375000 0.500000
vt 0.625000 0.500000
vt 0.375000 0.750000
vt 0.625000 0.750000
vt 0.375000 1.000000
vt 0.125000 0.750000
vt 0.125000 0.500000
vt 0.875000 0.500000
vt 0.625000 0.000000
vt 0.375000 0.250000
vt 0.375000 0.000000
vt 0.625000 0.250000
vt 0.375000 0.500000
vt 0.625000 0.500000
vt 0.375000 0.750000
vt 0.625000 0.750000
vt 0.375000 1.000000
vt 0.125000 0.750000
vt 0.125000 0.500000
vt 0.875000 0.500000
vt 0.000000 0.000000
vt 0.000000 0.000000
vt 0.000000 0.000000
vt 0.000000 0.000000
vt 0.000000 0.000000
vt 0.000000 0.000000
vt 0.000000 0.000000
vt 0.000000 0.000000
vt 0.625000 1.000000
vt 0.875000 0.750000
vt 0.625000 1.000000
vt 0.875000 0.750000
vt 0.625000 1.000000
vt 0.875000 0.750000
vt 0.625000 1.000000
vt 0.875000 0.750000
vt 0.625000 1.000000
vt 0.875000 0.750000
vt 0.625000 1.000000
vt 0.875000 0.750000
vt 0.625000 1.000000
vt 0.875000 0.750000
vt 0.625000 1.000000
vt 0.875000 0.750000
vt 0.625000 1.000000
vt 0.875000 0.750000
vt 0.625000 1.000000
vt 0.875000 0.750000
vt 0.625000 1.000000
vt 0.875000 0.750000
vt 0.625000 1.000000
vt 0.875000 0.750000
vt 0.625000 1.000000
vt 0.875000 0.750000
vt 0.625000 1.000000
vt 0.875000 0.750000
vt 0.625000 1.000000
vt 0.875000 0.750000
vt 0.625000 1.000000
vt 0.875000 0.750000
vt 0.625000 1.000000
vt 0.875000 0.750000
vt 0.625000 1.000000
vt 0.875000 0.750000
vt 0.625000 1.000000
vt 0.875000 0.750000
vt 0.625000 1.000000
vt 0.875000 0.750000
vt 0.625000 1.000000
vt 0.875000 0.750000
vt 0.625000 1.000000
vt 0.875000 0.750000
vt 0.625000 1.000000
vt 0.875000 0.750000
vt 0.625000 1.000000
vt 0.875000 0.750000
vt 0.625000 1.000000
vt 0.875000 0.750000
vt 0.000000 0.000000
vt 0.000000 0.000000
vt 0.000000 0.000000
vt 0.000000 0.000000
vt 0.000000 0.000000
vt 0.000000 0.000000
vt 0.000000 0.000000
vt 0.000000 0.000000
vn -1.0000 0.0000 0.0000
vn 0.0000 0.0000 -1.0000
vn 1.0000 0.0000 0.0000
vn 0.0000 0.0000 1.0000
vn 0.0000 -1.0000 0.0000
vn 0.0000 1.0000 0.0000
usemtl Material
s off
f 2/1/1 3/2/1 1/3/1
f 4/4/2 7/5/2 3/2/2
f 8/6/3 5/7/3 7/5/3
f 6/8/4 1/9/4 5/7/4
f 7/5/5 1/10/5 3/11/5
f 4/12/6 6/8/6 8/6/6
f 10/13/1 11/14/1 9/15/1
f 12/16/2 15/17/2 11/14/2
f 16/18/3 13/19/3 15/17/3
f 14/20/4 9/21/4 13/19/4
f 15/17/5 9/22/5 11/23/5
f 12/24/6 14/20/6 16/18/6
f 18/25/1 19/26/1 17/27/1
f 20/28/2 23/29/2 19/26/2
f 24/30/3 21/31/3 23/29/3
f 22/32/4 17/33/4 21/31/4
f 23/29/5 17/34/5 19/35/5
f 20/36/6 22/32/6 24/30/6
f 26/37/1 27/38/1 25/39/1
f 28/40/2 31/41/2 27/38/2
f 32/42/3 29/43/3 31/41/3
f 30/44/4 25/45/4 29/43/4
f 31/41/5 25/46/5 27/47/5
f 28/48/6 30/44/6 32/42/6
f 34/49/1 35/50/1 33/51/1
f 36/52/2 39/53/2 35/50/2
f 40/54/3 37/55/3 39/53/3
f 38/56/4 33/57/4 37/55/4
f 39/53/5 33/58/5 35/59/5
f 36/60/6 38/56/6 40/54/6
f 42/61/1 43/62/1 41/63/1
f 44/64/2 47/65/2 43/62/2
f 48/66/3 45/67/3 47/65/3
f 46/68/4 41/69/4 45/67/4
f 47/65/5 41/70/5 43/71/5
f 44/72/6 46/68/6 48/66/6
f 50/73/1 51/74/1 49/75/1
f 52/76/2 55/77/2 51/74/2
f 56/78/3 53/79/3 55/77/3
f 54/80/4 49/81/4 53/79/4
f 55/77/5 49/82/5 51/83/5
f 52/84/6 54/80/6 56/78/6
f 58/85/1 59/86/1 57/87/1
f 60/88/2 63/89/2 59/86/2
f 64/90/3 61/91/3 63/89/3
f 62/92/4 57/93/4 61/91/4
f 63/89/5 57/94/5 59/95/5
f 60/96/6 62/92/6 64/90/6
f 66/97/1 67/98/1 65/99/1
f 68/100/2 71/101/2 67/98/2
f 72/102/3 69/103/3 71/101/3
f 70/104/4 65/105/4 69/103/4
f 71/101/5 65/106/5 67/107/5
f 68/108/6 70/104/6 72/102/6
f 74/109/1 75/110/1 73/111/1
f 76/112/2 79/113/2 75/110/2
f 80/114/3 77/115/3 79/113/3
f 78/116/4 73/117/4 77/115/4
f 79/113/5 73/118/5 75/119/5
f 76/120/6 78/116/6 80/114/6
f 82/121/1 83/122/1 81/123/1
f 84/124/2 87/125/2 83/122/2
f 88/126/3 85/127/3 87/125/3
f 86/128/4 81/129/4 85/127/4
f 87/125/5 81/130/5 83/131/5
f 84/132/6 86/128/6 88/126/6
f 90/133/1 91/134/1 89/135/1
f 92/136/2 95/137/2 91/134/2
f 96/138/3 93/139/3 95/137/3
f 94/140/4 89/141/4 93/139/4
f 95/137/5 89/142/5 91/143/5
f 92/144/6 94/140/6 96/138/6
f 98/145/1 99/146/1 97/147/1
f 100/148/2 103/149/2 99/146/2
f 104/150/3 101/151/3 103/149/3
f 102/152/4 97/153/4 101/151/4
f 103/149/5 97/154/5 99/155/5
f 100/156/6 102/152/6 104/150/6
f 106/157/1 107/158/1 105/159/1
f 108/160/2 111/161/2 107/158/2
f 112/162/3 109/163/3 111/161/3
f 110/164/4 105/165/4 109/163/4
f 111/161/5 105/166/5 107/167/5
f 108/168/6 110/164/6 112/162/6
f 114/169/1 115/170/1 113/171/1
f 116/172/2 119/173/2 115/170/2
f 120/174/3 117/175/3 119/173/3
f 118/176/4 113/177/4 117/175/4
f 119/173/5 113/178/5 115/179/5
f 116/180/6 118/176/6 120/174/6
f 122/181/1 123/182/1 121/183/1
f 124/184/2 127/185/2 123/182/2
f 128/186/3 125/187/3 127/185/3
f 126/188/4 121/189/4 125/187/4
f 127/185/5 121/190/5 123/191/5
f 124/192/6 126/188/6 128/186/6
f 130/193/1 131/194/1 129/195/1
f 132/196/2 135/197/2 131/194/2
f 136/198/3 133/199/3 135/197/3
f 134/200/4 129/201/4 133/199/4
f 135/197/5 129/202/5 131/203/5
f 132/204/6 134/200/6 136/198/6
f 138/205/1 139/206/1 137/207/1
f 140/208/2 143/209/2 139/206/2
f 144/210/3 141/211/3 143/209/3
f 142/212/4 137/213/4 141/211/4
f 143/209/5 137/214/5 139/215/5
f 140/216/6 142/212/6 144/210/6
f 146/217/1 147/218/1 145/219/1
f 148/220/2 151/221/2 147/218/2
f 152/222/3 149/223/3 151/221/3
f 150/224/4 145/225/4 149/223/4
f 151/221/5 145/226/5 147/227/5
f 148/228/6 150/224/6 152/222/6
f 154/229/1 155/230/1 153/231/1
f 156/232/2 159/233/2 155/230/2
f 160/234/3 157/235/3 159/233/3
f 158/236/4 153/237/4 157/235/4
f 159/233/5 153/238/5 155/239/5
f 156/240/6 158/236/6 160/234/6
f 162/241/1 163/242/1 161/243/1
f 164/244/2 167/245/2 163/242/2
f 168/246/3 165/247/3 167/245/3
f 166/248/4 161/249/4 165/247/4
f 167/245/5 161/250/5 163/251/5
f 164/252/6 166/248/6 168/246/6
f 170/253/1 171/254/1 169/255/1
f 172/256/2 175/257/2 171/254/2
f 176/258/3 173/259/3 175/257/3
f 174/260/4 169/261/4 173/259/4
f 175/257/5 169/262/5 171/263/5
f 172/264/6 174/260/6 176/258/6
f 178/265/1 179/266/1 177/267/1
f 180/268/2 183/269/2 179/266/2
f 184/270/3 181/271/3 183/269/3
f 182/272/4 177/273/4 181/271/4
f 183/269/5 177/274/5 179/275/5
f 180/276/6 182/272/6 184/270/6
f 186/277/1 187/278/1 185/279/1
f 188/280/2 191/281/2 187/278/2
f 192/282/3 189/283/3 191/281/3
f 190/284/4 185/285/4 189/283/4
f 191/281/5 185/286/5 187/287/5
f 188/288/6 190/284/6 192/282/6
f 194/289/1 195/290/1 193/291/1
f 196/292/2 199/293/2 195/290/2
f 200/294/3 197/295/3 199/293/3
f 198/296/4 193/297/4 197/295/4
f 199/293/5 193/298/5 195/299/5
f 196/300/6 198/296/6 200/294/6
f 205/301/6 203/302/6 201/303/6
f 203/302/4 208/304/4 204/305/4
f 207/306/1 206/307/1 208/304/1
f 202/308/5 208/304/5 206/307/5
f 201/303/3 204/305/3 202/308/3
f 205/301/2 202/308/2 206/307/2
f 2/1/1 4/4/1 3/2/1
f 4/4/2 8/6/2 7/5/2
f 8/6/3 6/8/3 5/7/3
f 6/8/4 2/309/4 1/9/4
f 7/5/5 5/7/5 1/10/5
f 4/12/6 2/310/6 6/8/6
f 10/13/1 12/16/1 11/14/1
f 12/16/2 16/18/2 15/17/2
f 16/18/3 14/20/3 13/19/3
f 14/20/4 10/311/4 9/21/4
f 15/17/5 13/19/5 9/22/5
f 12/24/6 10/312/6 14/20/6
f 18/25/1 20/28/1 19/26/1
f 20/28/2 24/30/2 23/29/2
f 24/30/3 22/32/3 21/31/3
f 22/32/4 18/313/4 17/33/4
f 23/29/5 21/31/5 17/34/5
f 20/36/6 18/314/6 22/32/6
f 26/37/1 28/40/1 27/38/1
f 28/40/2 32/42/2 31/41/2
f 32/42/3 30/44/3 29/43/3
f 30/44/4 26/315/4 25/45/4
f 31/41/5 29/43/5 25/46/5
f 28/48/6 26/316/6 30/44/6
f 34/49/1 36/52/1 35/50/1
f 36/52/2 40/54/2 39/53/2
f 40/54/3 38/56/3 37/55/3
f 38/56/4 34/317/4 33/57/4
f 39/53/5 37/55/5 33/58/5
f 36/60/6 34/318/6 38/56/6
f 42/61/1 44/64/1 43/62/1
f 44/64/2 48/66/2 47/65/2
f 48/66/3 46/68/3 45/67/3
f 46/68/4 42/319/4 41/69/4
f 47/65/5 45/67/5 41/70/5
f 44/72/6 42/320/6 46/68/6
f 50/73/1 52/76/1 51/74/1
f 52/76/2 56/78/2 55/77/2
f 56/78/3 54/80/3 53/79/3
f 54/80/4 50/321/4 49/81/4
f 55/77/5 53/79/5 49/82/5
f 52/84/6 50/322/6 54/80/6
f 58/85/1 60/88/1 59/86/1
f 60/88/2 64/90/2 63/89/2
f 64/90/3 62/92/3 61/91/3
f 62/92/4 58/323/4 57/93/4
f 63/89/5 61/91/5 57/94/5
f 60/96/6 58/324/6 62/92/6
f 66/97/1 68/100/1 67/98/1
f 68/100/2 72/102/2 71/101/2
f 72/102/3 70/104/3 69/103/3
f 70/104/4 66/325/4 65/105/4
f 71/101/5 69/103/5 65/106/5
f 68/108/6 66/326/6 70/104/6
f 74/109/1 76/112/1 75/110/1
f 76/112/2 80/114/2 79/113/2
f 80/114/3 78/116/3 77/115/3
f 78/116/4 74/327/4 73/117/4
f 79/113/5 77/115/5 73/118/5
f 76/120/6 74/328/6 78/116/6
f 82/121/1 84/124/1 83/122/1
f 84/124/2 88/126/2 87/125/2
f 88/126/3 86/128/3 85/127/3
f 86/128/4 82/329/4 81/129/4
f 87/125/5 85/127/5 81/130/5
f 84/132/6 82/330/6 86/128/6
f 90/133/1 92/136/1 91/134/1
f 92/136/2 96/138/2 95/137/2
f 96/138/3 94/140/3 93/139/3
f 94/140/4 90/331/4 89/141/4
f 95/137/5 93/139/5 89/142/5
f 92/144/6 90/332/6 94/140/6
f 98/145/1 100/148/1 99/146/1
f 100/148/2 104/150/2 103/149/2
f 104/150/3 102/152/3 101/151/3
f 102/152/4 98/333/4 97/153/4
f 103/149/5 101/151/5 97/154/5
f 100/156/6 98/334/6 102/152/6
f 106/157/1 108/160/1 107/158/1
f 108/160/2 112/162/2 111/161/2
f 112/162/3 110/164/3 109/163/3
f 110/164/4 106/335/4 105/165/4
f 111/161/5 109/163/5 105/166/5
f 108/168/6 106/336/6 110/164/6
f 114/169/1 116/172/1 115/170/1
f 116/172/2 120/174/2 119/173/2
f 120/174/3 118/176/3 117/175/3
f 118/176/4 114/337/4 113/177/4
f 119/173/5 117/175/5 113/178/5
f 116/180/6 114/338/6 118/176/6
f 122/181/1 124/184/1 123/182/1
f 124/184/2 128/186/2 127/185/2
f 128/186/3 126/188/3 125/187/3
f 126/188/4 122/339/4 121/189/4
f 127/185/5 125/187/5 121/190/5
f 124/192/6 122/340/6 126/188/6
f 130/193/1 132/196/1 131/194/1
f 132/196/2 136/198/2 135/197/2
f 136/198/3 134/200/3 133/199/3
f 134/200/4 130/341/4 129/201/4
f 135/197/5 133/199/5 129/202/5
f 132/204/6 130/342/6 134/200/6
f 138/205/1 140/208/1 139/206/1
f 140/208/2 144/210/2 143/209/2
f 144/210/3 142/212/3 141/211/3
f 142/212/4 138/343/4 137/213/4
f 143/209/5 141/211/5 137/214/5
f 140/216/6 138/344/6 142/212/6
f 146/217/1 148/220/1 147/218/1
f 148/220/2 152/222/2 151/221/2
f 152/222/3 150/224/3 149/223/3
f 150/224/4 146/345/4 145/225/4
f 151/221/5 149/223/5 145/226/5
f 148/228/6 146/346/6 150/224/6
f 154/229/1 156/232/1 155/230/1
f 156/232/2 160/234/2 159/233/2
f 160/234/3 158/236/3 157/235/3
f 158/236/4 154/347/4 153/237/4
f 159/233/5 157/235/5 153/238/5
f 156/240/6 154/348/6 158/236/6
f 162/241/1 164/244/1 163/242/1
f 164/244/2 168/246/2 167/245/2
f 168/246/3 166/248/3 165/247/3
f 166/248/4 162/349/4 161/249/4
f 167/245/5 165/247/5 161/250/5
f 164/252/6 162/350/6 166/248/6
f 170/253/1 172/256/1 171/254/1
f 172/256/2 176/258/2 175/257/2
f 176/258/3 174/260/3 173/259/3
f 174/260/4 170/351/4 169/261/4
f 175/257/5 173/259/5 169/262/5
f 172/264/6 170/352/6 174/260/6
f 178/265/1 180/268/1 179/266/1
f 180/268/2 184/270/2 183/269/2
f 184/270/3 182/272/3 181/271/3
f 182/272/4 178/353/4 177/273/4
f 183/269/5 181/271/5 177/274/5
f 180/276/6 178/354/6 182/272/6
f 186/277/1 188/280/1 187/278/1
f 188/280/2 192/282/2 191/281/2
f 192/282/3 190/284/3 189/283/3
f 190/284/4 186/355/4 185/285/4
f 191/281/5 189/283/5 185/286/5
f 188/288/6 186/356/6 190/284/6
f 194/289/1 196/292/1 195/290/1
f 196/292/2 200/294/2 199/293/2
f 200/294/3 198/296/3 197/295/3
f 198/296/4 194/357/4 193/297/4
f 199/293/5 197/295/5 193/298/5
f 196/300/6 194/358/6 198/296/6
f 205/301/6 207/306/6 203/302/6
f 203/302/4 207/306/4 208/304/4
f 207/306/1 205/301/1 206/307/1
f 202/308/5 204/305/5 208/304/5
f 201/303/3 203/302/3 204/305/3
f 205/301/2 201/303/2 202/308/2
usemtl Material.001
f 213/359/6 211/360/6 209/361/6
f 211/360/4 216/362/4 212/363/4
f 215/364/1 214/365/1 216/362/1
f 210/366/5 216/362/5 214/365/5
f 209/361/3 212/363/3 210/366/3
f 213/359/2 210/366/2 214/365/2
f 213/359/6 215/364/6 211/360/6
f 211/360/4 215/364/4 216/362/4
f 215/364/1 213/359/1 214/365/1
f 210/366/5 212/363/5 216/362/5
f 209/361/3 211/360/3 212/363/3
f 213/359/2 209/361/2 210/366/2
