# Blender v3.2.2 OBJ File: ''
# www.blender.org
mtllib grass.mtl
o Grass_Cube.004
v -1.000000 -1.000000 -1.000000
v -1.000000 1.000000 -1.000000
v 1.000000 1.000000 -1.000000
v 1.000000 -1.000000 -1.000000
v 1.000000 1.000000 1.000000
v 1.000000 -1.000000 1.000000
v -1.000000 1.000000 1.000000
v -1.000000 -1.000000 1.000000
vt 0.798845 0.997751
vt 0.602578 0.801486
vt 0.798845 0.801486
vt 0.798845 0.997751
vt 0.602578 0.801486
vt 0.798845 0.801486
vt 0.798845 0.997751
vt 0.602578 0.801486
vt 0.798845 0.801486
vt 0.798845 0.997751
vt 0.602578 0.801486
vt 0.798845 0.801486
vt 0.598559 0.801486
vt 0.402293 0.997751
vt 0.402293 0.801486
vt 0.001185 0.398304
vt 0.197452 0.202039
vt 0.197452 0.398304
vt 0.602578 0.997751
vt 0.602578 0.997751
vt 0.602578 0.997751
vt 0.602578 0.997751
vt 0.598559 0.997751
vt 0.001185 0.202039
vn 0.0000 0.0000 -1.0000
vn 1.0000 -0.0000 0.0000
vn 0.0000 -0.0000 1.0000
vn -1.0000 -0.0000 0.0000
vn 0.0000 -1.0000 -0.0000
vn 0.0000 1.0000 0.0000
usemtl Blocks_Pixelart
s 1
f 2/1/1 4/2/1 1/3/1
f 3/4/2 6/5/2 4/6/2
f 5/7/3 8/8/3 6/9/3
f 7/10/4 1/11/4 8/12/4
f 6/13/5 1/14/5 4/15/5
f 3/16/6 7/17/6 5/18/6
f 2/1/1 3/19/1 4/2/1
f 3/4/2 5/20/2 6/5/2
f 5/7/3 7/21/3 8/8/3
f 7/10/4 2/22/4 1/11/4
f 6/13/5 8/23/5 1/14/5
f 3/16/6 2/24/6 7/17/6
