# Blender v3.4.1 OBJ File: ''
# www.blender.org
mtllib Seed.mtl
o Sphere_Sphere.001
v 0.338248 5.668891 -0.676495
v 0.625000 4.236773 -1.250000
v 0.816602 2.439480 -1.633204
v 0.883883 0.747882 -1.767767
v 0.816602 -0.470363 -1.633204
v 0.625000 -1.247315 -1.250000
v 0.338248 -1.637860 -0.676495
v 0.478354 5.668891 0.000000
v 0.883883 4.236773 0.000000
v 1.154849 2.439480 0.000000
v 1.250000 0.747882 0.000000
v 1.154849 -0.470363 0.000000
v 0.883883 -1.247315 0.000000
v 0.478354 -1.637860 0.000000
v 0.338248 5.668891 0.676495
v 0.625000 4.236773 1.250000
v 0.816602 2.439480 1.633204
v 0.883883 0.747883 1.767767
v 0.816602 -0.470363 1.633204
v 0.625000 -1.247315 1.250000
v 0.338248 -1.637860 0.676495
v 0.000000 5.668891 0.956709
v 0.000000 4.236773 1.767767
v 0.000000 2.439480 2.309699
v 0.000000 0.747883 2.500000
v 0.000000 -0.470363 2.309699
v 0.000000 -1.247315 1.767767
v 0.000000 -1.637860 0.956709
v -0.338248 5.668891 0.676495
v -0.625000 4.236773 1.250000
v -0.816602 2.439480 1.633204
v -0.883883 0.747883 1.767767
v -0.816602 -0.470363 1.633204
v -0.625000 -1.247315 1.250000
v -0.338248 -1.637860 0.676495
v -0.478354 5.668891 0.000000
v -0.883883 4.236773 0.000000
v -1.154849 2.439480 0.000000
v -1.250000 0.747883 0.000000
v -1.154849 -0.470363 0.000000
v -0.883883 -1.247315 0.000000
v -0.478354 -1.637860 0.000000
v -0.338248 5.668891 -0.676495
v -0.625000 4.236773 -1.250000
v -0.816602 2.439480 -1.633204
v -0.883883 0.747883 -1.767767
v -0.816602 -0.470363 -1.633204
v -0.625000 -1.247315 -1.250000
v -0.338248 -1.637860 -0.676495
v 0.000000 -1.750000 0.000000
v 0.000000 6.250000 0.000000
v 0.000000 5.668891 -0.956709
v 0.000000 4.236773 -1.767767
v 0.000000 2.439480 -2.309699
v 0.000000 0.747883 -2.500000
v 0.000000 -0.470363 -2.309699
v 0.000000 -1.247315 -1.767767
v 0.000000 -1.637860 -0.956709
vt 0.433327 0.044555
vt 0.553011 0.070785
vt 0.501195 0.133552
vt 0.734590 0.194518
vt 0.543688 0.204898
vt 0.651339 0.115275
vt 0.803186 0.555191
vt 0.596295 0.383806
vt 0.797385 0.336359
vt 0.581295 0.937551
vt 0.575685 0.724164
vt 0.720751 0.781680
vt 0.573222 0.279698
vt 0.603478 0.540917
vt 0.445197 0.989304
vt 0.515118 0.880316
vt 0.444247 0.864272
vt 0.444662 0.709852
vt 0.436147 0.231402
vt 0.433213 0.152992
vt 0.437547 0.305177
vt 0.441569 0.541344
vt 0.438613 0.400701
vt 0.363798 0.133395
vt 0.298118 0.291770
vt 0.281206 0.551749
vt 0.375107 0.882025
vt 0.324579 0.212364
vt 0.279617 0.397063
vt 0.316111 0.729909
vt 0.314942 0.936465
vt 0.305691 0.066020
vt 0.199088 0.126987
vt 0.076218 0.371776
vt 0.178762 0.793535
vt 0.121175 0.223057
vt 0.089425 0.581680
vt 0.734590 0.194518
vt 0.543689 0.204898
vt 0.651339 0.115275
vt 0.803186 0.555191
vt 0.596295 0.383805
vt 0.797385 0.336359
vt 0.581295 0.937551
vt 0.575685 0.724164
vt 0.720751 0.781680
vt 0.501195 0.133552
vt 0.553011 0.070785
vt 0.573222 0.279698
vt 0.603478 0.540917
vt 0.515118 0.880316
vt 0.433214 0.152992
vt 0.438613 0.400701
vt 0.437547 0.305177
vt 0.441569 0.541344
vt 0.444247 0.864272
vt 0.436147 0.231402
vt 0.444662 0.709852
vt 0.298118 0.291770
vt 0.281206 0.551749
vt 0.375107 0.882025
vt 0.363799 0.133395
vt 0.324579 0.212364
vt 0.279617 0.397063
vt 0.316111 0.729909
vt 0.305691 0.066020
vt 0.199088 0.126987
vt 0.076218 0.371776
vt 0.178762 0.793535
vt 0.121175 0.223057
vt 0.089425 0.581680
vt 0.314942 0.936465
vn -0.0000 -1.0000 0.0000
vn 0.0000 -0.9395 -0.3426
vn 0.4047 -0.8940 -0.1925
vn -0.0000 -0.3443 -0.9389
vn 0.6834 -0.6133 -0.3961
vn -0.0000 -0.7117 -0.7025
vn -0.0000 0.1942 -0.9810
vn 0.8508 -0.0144 -0.5253
vn -0.0000 -0.0204 -0.9998
vn -0.0000 0.6474 -0.7621
vn 0.8220 0.2741 -0.4991
vn 0.0000 0.3776 -0.9260
vn 0.8197 -0.2627 -0.5089
vn 0.8456 0.1358 -0.5163
vn -0.0000 1.0000 0.0000
vn 0.7219 0.5437 -0.4281
vn 0.8914 0.4533 -0.0000
vn 0.9778 0.2095 0.0000
vn 0.8503 -0.5263 0.0000
vn 0.5037 -0.8639 0.0000
vn 0.9794 -0.2020 0.0000
vn 0.9948 0.1021 0.0000
vn 0.9999 -0.0108 0.0000
vn 0.4047 -0.8940 0.1925
vn 0.8197 -0.2627 0.5089
vn 0.8456 0.1358 0.5163
vn 0.7219 0.5437 0.4281
vn 0.6834 -0.6133 0.3961
vn 0.8508 -0.0144 0.5253
vn 0.8220 0.2741 0.4991
vn 0.0000 0.6474 0.7621
vn -0.0000 -0.9395 0.3426
vn 0.0000 -0.7117 0.7025
vn -0.0000 -0.0204 0.9998
vn -0.0000 0.3776 0.9260
vn -0.0000 -0.3443 0.9389
vn 0.0000 0.1942 0.9810
vn -0.6834 -0.6133 0.3961
vn -0.8508 -0.0144 0.5253
vn -0.8220 0.2741 0.4991
vn -0.4047 -0.8940 0.1925
vn -0.8197 -0.2627 0.5089
vn -0.8456 0.1358 0.5163
vn -0.7219 0.5437 0.4281
vn -0.5037 -0.8639 0.0000
vn -0.9999 -0.0108 0.0000
vn -0.9794 -0.2020 -0.0000
vn -0.9948 0.1021 -0.0000
vn -0.8914 0.4533 -0.0000
vn -0.8503 -0.5263 0.0000
vn -0.9778 0.2095 0.0000
vn -0.8197 -0.2627 -0.5089
vn -0.8456 0.1358 -0.5163
vn -0.7219 0.5437 -0.4281
vn -0.4047 -0.8940 -0.1925
vn -0.6834 -0.6133 -0.3961
vn -0.8508 -0.0144 -0.5253
vn -0.8220 0.2741 -0.4991
usemtl Material.002
s 1
f 50/1/1 58/2/2 7/3/3
f 56/4/4 6/5/5 57/6/6
f 54/7/7 4/8/8 55/9/9
f 52/10/10 2/11/11 53/12/12
f 57/6/6 7/3/3 58/2/2
f 55/9/9 5/13/13 56/4/4
f 53/12/12 3/14/14 54/7/7
f 52/10/10 51/15/15 1/16/16
f 2/11/11 8/17/17 9/18/18
f 7/3/3 13/19/19 14/20/20
f 4/8/8 12/21/21 5/13/13
f 2/11/11 10/22/22 3/14/14
f 1/16/16 51/15/15 8/17/17
f 50/1/1 7/3/3 14/20/20
f 5/13/13 13/19/19 6/5/5
f 3/14/14 11/23/23 4/8/8
f 13/19/19 21/24/24 14/20/20
f 11/23/23 19/25/25 12/21/21
f 9/18/18 17/26/26 10/22/22
f 8/17/17 51/15/15 15/27/27
f 50/1/1 14/20/20 21/24/24
f 13/19/19 19/25/25 20/28/28
f 10/22/22 18/29/29 11/23/23
f 8/17/17 16/30/30 9/18/18
f 15/27/27 51/15/15 22/31/31
f 50/1/1 21/24/24 28/32/32
f 19/25/25 27/33/33 20/28/28
f 17/26/26 25/34/34 18/29/29
f 15/27/27 23/35/35 16/30/30
f 20/28/28 28/32/32 21/24/24
f 19/25/25 25/34/34 26/36/36
f 16/30/30 24/37/37 17/26/26
f 26/38/36 34/39/38 27/40/33
f 24/41/37 32/42/39 25/43/34
f 22/44/31 30/45/40 23/46/35
f 27/40/33 35/47/41 28/48/32
f 25/43/34 33/49/42 26/38/36
f 23/46/35 31/50/43 24/41/37
f 22/44/31 51/15/15 29/51/44
f 50/1/1 28/48/32 35/47/41
f 34/39/38 42/52/45 35/47/41
f 33/49/42 39/53/46 40/54/47
f 30/45/40 38/55/48 31/50/43
f 29/51/44 51/15/15 36/56/49
f 50/1/1 35/47/41 42/52/45
f 33/49/42 41/57/50 34/39/38
f 31/50/43 39/53/46 32/42/39
f 29/51/44 37/58/51 30/45/40
f 39/53/46 47/59/52 40/54/47
f 37/58/51 45/60/53 38/55/48
f 36/56/49 51/15/15 43/61/54
f 50/1/1 42/52/45 49/62/55
f 40/54/47 48/63/56 41/57/50
f 38/55/48 46/64/57 39/53/46
f 36/56/49 44/65/58 37/58/51
f 41/57/50 49/62/55 42/52/45
f 50/1/1 49/62/55 58/66/2
f 47/59/52 57/67/6 48/63/56
f 45/60/53 55/68/9 46/64/57
f 43/61/54 53/69/12 44/65/58
f 48/63/56 58/66/2 49/62/55
f 47/59/52 55/68/9 56/70/4
f 44/65/58 54/71/7 45/60/53
f 43/61/54 51/15/15 52/72/10
f 56/4/4 5/13/13 6/5/5
f 54/7/7 3/14/14 4/8/8
f 52/10/10 1/16/16 2/11/11
f 57/6/6 6/5/5 7/3/3
f 55/9/9 4/8/8 5/13/13
f 53/12/12 2/11/11 3/14/14
f 2/11/11 1/16/16 8/17/17
f 7/3/3 6/5/5 13/19/19
f 4/8/8 11/23/23 12/21/21
f 2/11/11 9/18/18 10/22/22
f 5/13/13 12/21/21 13/19/19
f 3/14/14 10/22/22 11/23/23
f 13/19/19 20/28/28 21/24/24
f 11/23/23 18/29/29 19/25/25
f 9/18/18 16/30/30 17/26/26
f 13/19/19 12/21/21 19/25/25
f 10/22/22 17/26/26 18/29/29
f 8/17/17 15/27/27 16/30/30
f 19/25/25 26/36/36 27/33/33
f 17/26/26 24/37/37 25/34/34
f 15/27/27 22/31/31 23/35/35
f 20/28/28 27/33/33 28/32/32
f 19/25/25 18/29/29 25/34/34
f 16/30/30 23/35/35 24/37/37
f 26/38/36 33/49/42 34/39/38
f 24/41/37 31/50/43 32/42/39
f 22/44/31 29/51/44 30/45/40
f 27/40/33 34/39/38 35/47/41
f 25/43/34 32/42/39 33/49/42
f 23/46/35 30/45/40 31/50/43
f 34/39/38 41/57/50 42/52/45
f 33/49/42 32/42/39 39/53/46
f 30/45/40 37/58/51 38/55/48
f 33/49/42 40/54/47 41/57/50
f 31/50/43 38/55/48 39/53/46
f 29/51/44 36/56/49 37/58/51
f 39/53/46 46/64/57 47/59/52
f 37/58/51 44/65/58 45/60/53
f 40/54/47 47/59/52 48/63/56
f 38/55/48 45/60/53 46/64/57
f 36/56/49 43/61/54 44/65/58
f 41/57/50 48/63/56 49/62/55
f 47/59/52 56/70/4 57/67/6
f 45/60/53 54/71/7 55/68/9
f 43/61/54 52/72/10 53/69/12
f 48/63/56 57/67/6 58/66/2
f 47/59/52 46/64/57 55/68/9
f 44/65/58 53/69/12 54/71/7
